<svg width="723" height="598" viewBox="0 0 723 598" fill="none" xmlns="http://www.w3.org/2000/svg">
<path d="M11.3598 0.429688C5.12216 0.429688 0.0663472 6.00999 0.0663472 12.8957C-0.0829341 172.352 0.0663472 331.798 0.0663472 490.992C0.0663472 497.878 5.12175 503.463 11.3598 503.463H321.439L310.497 572.066H225.962C210.687 571.834 210.687 597.238 225.962 597.002H497.04C512.315 597.233 512.315 571.83 497.04 572.066H412.505L401.592 503.463H711.64C717.878 503.463 722.934 497.878 722.934 490.992C723.083 331.604 722.934 172.455 722.934 12.8957C722.934 6.01045 717.878 0.429688 711.64 0.429688H11.3598ZM22.6532 403.586H700.353V478.523H22.6532V403.586Z" fill="black"/>
<path d="M380.333 440.987C380.333 446.496 378.352 451.782 374.822 455.68C371.292 459.577 366.503 461.768 361.511 461.768C356.517 461.768 351.727 459.576 348.197 455.68C344.666 451.783 342.685 446.496 342.685 440.987C342.685 435.473 344.666 430.187 348.197 426.29C351.727 422.393 356.516 420.206 361.511 420.206C366.502 420.206 371.291 422.393 374.822 426.29C378.352 430.187 380.333 435.473 380.333 440.987Z" fill="black"/>
</svg>
