<svg width="175" height="25" viewBox="0 0 175 25" fill="none" xmlns="http://www.w3.org/2000/svg">
<g clip-path="url(#clip0_118_60)">
<path d="M43.174 3.88402C43.1466 3.90953 43.1143 3.92923 43.0791 3.94195C43.0439 3.95467 43.0064 3.96013 42.969 3.95802H36.514C36.452 3.95802 36.42 3.98902 36.42 4.05102V8.00202C36.42 8.06402 36.451 8.09502 36.514 8.09502H40.91C40.996 8.09502 41.064 8.12002 41.113 8.16902C41.163 8.21902 41.187 8.28702 41.187 8.37302V9.35602C41.1892 9.39327 41.1838 9.43058 41.1711 9.46566C41.1584 9.50074 41.1386 9.53285 41.113 9.56002C41.0861 9.58562 41.0542 9.6054 41.0192 9.61813C40.9843 9.63086 40.9471 9.63627 40.91 9.63402H36.514C36.452 9.63402 36.42 9.66502 36.42 9.72702V15.125C36.4224 15.1623 36.417 15.1996 36.4043 15.2347C36.3915 15.2698 36.3717 15.3019 36.346 15.329C36.3191 15.3546 36.2872 15.3744 36.2522 15.3871C36.2173 15.3999 36.1801 15.4053 36.143 15.403H34.918C34.8806 15.4053 34.8432 15.3998 34.8079 15.3871C34.7727 15.3744 34.7404 15.3546 34.713 15.329C34.6877 15.3017 34.6682 15.2696 34.6556 15.2345C34.6431 15.1994 34.6378 15.1622 34.64 15.125V2.69502C34.64 2.60902 34.664 2.54102 34.713 2.49102C34.7405 2.46561 34.7728 2.44597 34.808 2.43326C34.8433 2.42055 34.8807 2.41503 34.918 2.41702H42.969C43.056 2.41702 43.123 2.44202 43.174 2.49102C43.1993 2.51839 43.2189 2.55053 43.2316 2.58556C43.2443 2.62059 43.2499 2.65781 43.248 2.69502V3.67802C43.2502 3.71557 43.2447 3.75316 43.232 3.78855C43.2193 3.82395 43.1996 3.85642 43.174 3.88402V3.88402ZM50.168 6.07302C50.303 6.14702 50.354 6.26502 50.316 6.42602L50.056 7.63202C50.042 7.75602 49.982 7.81802 49.87 7.81802C49.82 7.81982 49.77 7.81341 49.722 7.79902C49.5181 7.73428 49.305 7.70288 49.091 7.70602C48.9977 7.70405 48.9043 7.7104 48.812 7.72502C48.231 7.75002 47.751 7.95102 47.374 8.32902C46.997 8.70602 46.809 9.19802 46.809 9.80402V15.128C46.8114 15.1653 46.806 15.2026 46.7933 15.2377C46.7805 15.2728 46.7607 15.3049 46.735 15.332C46.7078 15.3576 46.6757 15.3773 46.6407 15.39C46.6056 15.4027 46.5683 15.4082 46.531 15.406H45.306C45.2689 15.4083 45.2318 15.4029 45.1969 15.3901C45.1619 15.3774 45.13 15.3576 45.103 15.332C45.052 15.283 45.029 15.215 45.029 15.128V6.24002C45.029 6.15402 45.052 6.08602 45.103 6.03702C45.13 6.01143 45.1619 5.99165 45.1969 5.97892C45.2318 5.96619 45.2689 5.96078 45.306 5.96302H46.531C46.617 5.96302 46.685 5.98702 46.735 6.03702C46.785 6.08602 46.809 6.15402 46.809 6.24002V7.09402C46.809 7.14402 46.818 7.17202 46.837 7.17802C46.855 7.18402 46.876 7.16802 46.901 7.13102C47.458 6.29002 48.212 5.87002 49.165 5.87002C49.537 5.87002 49.871 5.93702 50.168 6.07302ZM53.701 14.858C53.027 14.394 52.554 13.748 52.282 12.919C52.059 12.252 51.948 11.497 51.948 10.656C51.948 9.77802 52.052 9.03602 52.263 8.42902C52.534 7.61302 53.011 6.97302 53.691 6.50902C54.372 6.04502 55.181 5.81402 56.122 5.81402C57.013 5.81402 57.789 6.04502 58.451 6.50902C59.111 6.97302 59.585 7.60702 59.869 8.41002C60.092 9.04102 60.203 9.78302 60.203 10.637C60.203 11.502 60.092 12.263 59.869 12.918C59.598 13.747 59.127 14.394 58.46 14.857C57.792 15.321 57.006 15.552 56.104 15.552C55.176 15.553 54.375 15.322 53.701 14.858V14.858ZM57.402 13.596C57.773 13.318 58.039 12.925 58.2 12.417C58.336 11.947 58.404 11.366 58.404 10.674C58.404 9.98202 58.342 9.40602 58.218 8.94802C58.057 8.44102 57.791 8.04902 57.42 7.77002C57.049 7.49102 56.597 7.35202 56.066 7.35202C55.558 7.35202 55.121 7.49202 54.75 7.77002C54.379 8.04802 54.112 8.44102 53.951 8.94802C53.815 9.38102 53.748 9.95602 53.748 10.674C53.748 11.391 53.815 11.973 53.951 12.417C54.099 12.925 54.363 13.317 54.74 13.596C55.117 13.875 55.572 14.013 56.103 14.013C56.5704 14.0225 57.0275 13.8757 57.402 13.596ZM69.609 6.71302C70.203 7.30102 70.5 8.09502 70.5 9.09702V15.126C70.5021 15.1633 70.4967 15.2005 70.4839 15.2356C70.4712 15.2707 70.4515 15.3028 70.426 15.33C70.3987 15.3556 70.3664 15.3754 70.3312 15.3881C70.2959 15.4008 70.2584 15.4063 70.221 15.404H68.997C68.9598 15.4064 68.9224 15.401 68.8873 15.3882C68.8522 15.3755 68.8201 15.3557 68.793 15.33C68.7674 15.3029 68.7475 15.2708 68.7348 15.2357C68.7221 15.2006 68.7167 15.1633 68.719 15.126V9.45002C68.719 8.83202 68.539 8.33102 68.181 7.94702C67.823 7.56402 67.346 7.37202 66.752 7.37202C66.221 7.37202 65.772 7.53002 65.407 7.84602C65.042 8.16102 64.828 8.58502 64.767 9.11702V15.128C64.7691 15.1653 64.7637 15.2025 64.7509 15.2376C64.7382 15.2727 64.7185 15.3048 64.693 15.332C64.6657 15.3576 64.6334 15.3774 64.5982 15.3901C64.5629 15.4028 64.5254 15.4083 64.488 15.406H63.263C63.2259 15.4083 63.1888 15.4029 63.1538 15.3901C63.1189 15.3774 63.087 15.3576 63.06 15.332C63.0344 15.3049 63.0145 15.2728 63.0018 15.2377C62.9891 15.2026 62.9837 15.1653 62.986 15.128V6.24002C62.986 6.15402 63.01 6.08602 63.06 6.03702C63.087 6.01143 63.1189 5.99165 63.1538 5.97892C63.1888 5.96619 63.2259 5.96078 63.263 5.96302H64.488C64.575 5.96302 64.643 5.98702 64.693 6.03702C64.7184 6.06411 64.7381 6.09606 64.7508 6.13095C64.7635 6.16584 64.7691 6.20294 64.767 6.24002V6.76002C64.767 6.79702 64.779 6.82202 64.804 6.83402C64.827 6.84702 64.847 6.84102 64.859 6.81502C65.379 6.16002 66.158 5.83302 67.197 5.83302C68.211 5.83302 69.016 6.12602 69.609 6.71302V6.71302ZM78.087 7.35302C78.0598 7.37855 78.0277 7.39828 77.9926 7.411C77.9576 7.42372 77.9203 7.42917 77.883 7.42702H75.99C75.928 7.42702 75.898 7.45802 75.898 7.52002V12.362C75.898 12.894 76.011 13.271 76.241 13.494C76.47 13.717 76.838 13.828 77.345 13.828H77.79C77.877 13.828 77.945 13.853 77.994 13.902C78.0193 13.9294 78.0389 13.9615 78.0516 13.9966C78.0643 14.0316 78.0699 14.0688 78.068 14.106V15.071C78.068 15.245 77.975 15.343 77.79 15.368L77.029 15.387C76.077 15.387 75.365 15.22 74.896 14.886C74.425 14.552 74.191 13.928 74.191 13.012V7.52002C74.191 7.45802 74.16 7.42702 74.097 7.42702H73.077C73.0398 7.42923 73.0025 7.42381 72.9674 7.41108C72.9323 7.39836 72.9002 7.3786 72.873 7.35302C72.8474 7.32592 72.8275 7.29382 72.8148 7.25872C72.8021 7.22363 72.7967 7.18629 72.799 7.14902V6.24002C72.799 6.15402 72.823 6.08602 72.873 6.03702C72.9002 6.01145 72.9323 5.99169 72.9674 5.97897C73.0025 5.96624 73.0398 5.96082 73.077 5.96302H74.097C74.159 5.96302 74.191 5.93202 74.191 5.87002V3.79202C74.191 3.70502 74.215 3.63802 74.265 3.58802C74.292 3.56243 74.3239 3.54265 74.3588 3.52992C74.3938 3.51719 74.4309 3.51178 74.468 3.51402H75.618C75.705 3.51402 75.772 3.53802 75.823 3.58802C75.872 3.63802 75.897 3.70502 75.897 3.79202V5.87002C75.897 5.93202 75.927 5.96302 75.989 5.96302H77.882C77.968 5.96302 78.036 5.98702 78.086 6.03702C78.136 6.08602 78.16 6.15402 78.16 6.24002V7.14902C78.1627 7.18624 78.1576 7.2236 78.1451 7.25873C78.1325 7.29386 78.1127 7.32598 78.087 7.35302V7.35302ZM86.714 12.863C86.776 12.752 86.844 12.696 86.918 12.696C86.98 12.696 87.035 12.715 87.084 12.752L87.846 13.216C87.945 13.278 87.994 13.359 87.994 13.457L87.957 13.605C87.6281 14.2059 87.1358 14.7013 86.537 15.034C85.926 15.381 85.211 15.554 84.394 15.554C83.516 15.554 82.774 15.36 82.167 14.97C81.562 14.58 81.104 14.021 80.795 13.29C80.485 12.536 80.331 11.651 80.331 10.638C80.331 9.73502 80.399 9.04902 80.535 8.57802C80.758 7.72402 81.202 7.05102 81.87 6.55602C82.538 6.06202 83.349 5.81502 84.301 5.81502C85.476 5.81502 86.372 6.12102 86.991 6.73302C87.609 7.34502 88.011 8.23302 88.196 9.39502C88.258 9.85302 88.301 10.41 88.327 11.065C88.327 11.251 88.233 11.343 88.048 11.343H82.187C82.125 11.343 82.093 11.373 82.093 11.436C82.118 11.906 82.161 12.24 82.224 12.437C82.359 12.932 82.632 13.322 83.04 13.606C83.448 13.891 83.954 14.033 84.561 14.033C85.563 14.02 86.281 13.63 86.714 12.863V12.863ZM82.976 7.74302C82.635 8.00302 82.404 8.36202 82.28 8.81902C82.1827 9.15732 82.1269 9.50623 82.114 9.85802C82.114 9.92002 82.144 9.95102 82.206 9.95102H86.418C86.48 9.95102 86.511 9.92002 86.511 9.85802C86.486 9.45002 86.449 9.14702 86.4 8.94902C86.2921 8.4919 86.0344 8.08397 85.668 7.79002C85.303 7.49902 84.848 7.35302 84.304 7.35302C83.76 7.35302 83.315 7.48302 82.976 7.74302V7.74302ZM97.658 6.71302C98.252 7.30102 98.549 8.09502 98.549 9.09702V15.126C98.5514 15.1633 98.546 15.2006 98.5333 15.2357C98.5205 15.2708 98.5007 15.3029 98.475 15.33C98.4481 15.3556 98.4162 15.3754 98.3812 15.3881C98.3463 15.4009 98.3091 15.4063 98.272 15.404H97.047C97.0098 15.4062 96.9725 15.4008 96.9374 15.3881C96.9023 15.3754 96.8702 15.3556 96.843 15.33C96.8174 15.3029 96.7975 15.2708 96.7848 15.2357C96.7721 15.2006 96.7667 15.1633 96.769 15.126V9.45002C96.769 8.83202 96.589 8.33102 96.231 7.94702C95.872 7.56402 95.396 7.37202 94.802 7.37202C94.27 7.37202 93.823 7.53002 93.457 7.84602C93.091 8.16202 92.879 8.58502 92.816 9.11702V15.128C92.8184 15.1653 92.813 15.2026 92.8003 15.2377C92.7875 15.2728 92.7677 15.3049 92.742 15.332C92.7151 15.3576 92.6832 15.3774 92.6482 15.3901C92.6133 15.4029 92.5761 15.4083 92.539 15.406H91.314C91.2768 15.4084 91.2394 15.403 91.2043 15.3902C91.1692 15.3775 91.1371 15.3577 91.11 15.332C91.0844 15.3049 91.0645 15.2728 91.0518 15.2377C91.0391 15.2026 91.0337 15.1653 91.036 15.128V6.24002C91.036 6.15402 91.06 6.08602 91.11 6.03702C91.1371 6.01135 91.1692 5.99153 91.2043 5.9788C91.2394 5.96607 91.2768 5.9607 91.314 5.96302H92.539C92.625 5.96302 92.693 5.98702 92.742 6.03702C92.792 6.08602 92.816 6.15402 92.816 6.24002V6.76002C92.816 6.79702 92.829 6.82202 92.853 6.83402C92.878 6.84702 92.896 6.84102 92.91 6.81502C93.43 6.16002 94.209 5.83302 95.247 5.83302C96.262 5.83302 97.065 6.12602 97.658 6.71302V6.71302ZM107.381 2.49302C107.408 2.46762 107.44 2.44797 107.475 2.43525C107.51 2.42253 107.547 2.41701 107.584 2.41902H108.809C108.846 2.41716 108.883 2.42275 108.919 2.43546C108.954 2.44816 108.986 2.46774 109.013 2.49302C109.063 2.54302 109.087 2.61102 109.087 2.69702V15.127C109.089 15.1643 109.084 15.2016 109.071 15.2367C109.059 15.2718 109.039 15.3039 109.013 15.331C108.986 15.3566 108.954 15.3763 108.919 15.389C108.884 15.4017 108.846 15.4072 108.809 15.405H107.584C107.547 15.4073 107.51 15.4019 107.475 15.3891C107.44 15.3764 107.408 15.3566 107.381 15.331C107.33 15.282 107.307 15.214 107.307 15.127V14.645C107.307 14.608 107.293 14.583 107.27 14.571C107.245 14.559 107.219 14.565 107.196 14.59C106.923 14.9 106.604 15.138 106.24 15.305C105.876 15.471 105.476 15.555 105.044 15.555C104.153 15.555 103.414 15.335 102.827 14.897C102.239 14.458 101.809 13.836 101.538 13.032C101.315 12.414 101.204 11.623 101.204 10.658C101.204 9.75502 101.296 9.00702 101.481 8.41302C101.741 7.59702 102.17 6.96002 102.77 6.50202C103.37 6.04502 104.127 5.81602 105.043 5.81602C105.476 5.81602 105.875 5.89602 106.239 6.05702C106.603 6.21702 106.922 6.45302 107.195 6.76102C107.218 6.78602 107.244 6.79502 107.269 6.78902C107.292 6.78302 107.306 6.76102 107.306 6.72402V2.69902C107.307 2.61102 107.33 2.54202 107.381 2.49302ZM107.287 10.674C107.287 9.65902 107.127 8.86802 106.805 8.29902C106.447 7.66802 105.921 7.35302 105.229 7.35302C104.511 7.35302 103.961 7.65002 103.578 8.24402C103.182 8.86302 102.984 9.67902 102.984 10.693C102.984 11.645 103.139 12.412 103.448 12.993C103.806 13.674 104.4 14.014 105.229 14.014C105.934 14.014 106.471 13.68 106.842 13.012C107.139 12.467 107.287 11.688 107.287 10.674V10.674ZM116.656 15.331C116.63 15.3039 116.611 15.2718 116.598 15.2367C116.585 15.2016 116.58 15.1643 116.582 15.127V2.69702C116.582 2.61102 116.606 2.54302 116.656 2.49302C116.683 2.46762 116.715 2.44797 116.75 2.43525C116.785 2.42253 116.822 2.41701 116.859 2.41902H118.103C118.251 2.41902 118.363 2.48102 118.437 2.60502L121.553 7.57702C121.59 7.65102 121.627 7.65102 121.664 7.57702L124.8 2.60502C124.833 2.54625 124.882 2.49777 124.941 2.46495C125 2.43213 125.067 2.41623 125.134 2.41902H126.376C126.413 2.41716 126.45 2.42275 126.486 2.43546C126.521 2.44816 126.553 2.46774 126.58 2.49302C126.63 2.54302 126.654 2.61102 126.654 2.69702V15.127C126.656 15.1643 126.651 15.2016 126.638 15.2367C126.626 15.2718 126.606 15.3039 126.58 15.331C126.553 15.3566 126.521 15.3763 126.486 15.389C126.451 15.4017 126.413 15.4072 126.376 15.405H125.151C125.114 15.4073 125.077 15.4019 125.042 15.3891C125.007 15.3764 124.975 15.3566 124.948 15.331C124.897 15.282 124.874 15.214 124.874 15.127V5.70302C124.874 5.65302 124.86 5.62602 124.837 5.61902C124.812 5.61302 124.786 5.62902 124.763 5.66602L122.24 9.78402C122.207 9.84288 122.158 9.89141 122.099 9.92425C122.04 9.95709 121.973 9.97293 121.906 9.97002H121.312C121.245 9.97293 121.178 9.95709 121.119 9.92425C121.06 9.89141 121.011 9.84288 120.978 9.78402L118.474 5.66602C118.449 5.62902 118.423 5.61302 118.4 5.61902C118.375 5.62602 118.363 5.65302 118.363 5.70302V15.127C118.365 15.1643 118.36 15.2015 118.347 15.2366C118.334 15.2717 118.315 15.3038 118.289 15.331C118.262 15.3565 118.229 15.3762 118.194 15.389C118.159 15.4017 118.121 15.4071 118.084 15.405H116.859C116.822 15.407 116.785 15.4015 116.75 15.3888C116.715 15.3761 116.683 15.3564 116.656 15.331V15.331ZM136.061 12.863C136.123 12.752 136.192 12.696 136.266 12.696C136.326 12.6957 136.384 12.7154 136.432 12.752L137.193 13.216C137.292 13.278 137.341 13.359 137.341 13.457L137.304 13.605C136.975 14.2056 136.483 14.701 135.885 15.034C135.273 15.381 134.559 15.554 133.742 15.554C132.863 15.554 132.121 15.36 131.515 14.97C130.909 14.58 130.451 14.021 130.142 13.29C129.833 12.536 129.679 11.651 129.679 10.638C129.679 9.73502 129.746 9.04902 129.882 8.57802C130.105 7.72402 130.55 7.05102 131.218 6.55602C131.886 6.06202 132.697 5.81502 133.648 5.81502C134.824 5.81502 135.72 6.12102 136.339 6.73302C136.956 7.34502 137.359 8.23302 137.544 9.39502C137.614 9.94934 137.657 10.5066 137.674 11.065C137.674 11.251 137.581 11.343 137.396 11.343H131.534C131.472 11.343 131.441 11.373 131.441 11.436C131.466 11.906 131.509 12.24 131.571 12.437C131.707 12.932 131.979 13.322 132.387 13.606C132.795 13.891 133.302 14.033 133.908 14.033C134.91 14.02 135.628 13.63 136.061 12.863V12.863ZM132.322 7.74302C131.982 8.00302 131.75 8.36202 131.627 8.81902C131.529 9.15727 131.473 9.50618 131.46 9.85802C131.46 9.92002 131.49 9.95102 131.553 9.95102H135.764C135.826 9.95102 135.858 9.92002 135.858 9.85802C135.833 9.45002 135.796 9.14702 135.747 8.94902C135.638 8.49197 135.38 8.08417 135.014 7.79002C134.65 7.49902 134.195 7.35302 133.65 7.35302C133.105 7.35302 132.662 7.48302 132.322 7.74302V7.74302ZM147.006 6.71302C147.6 7.30102 147.897 8.09502 147.897 9.09702V15.126C147.899 15.1633 147.894 15.2006 147.881 15.2357C147.869 15.2708 147.849 15.3029 147.823 15.33C147.796 15.3556 147.764 15.3754 147.729 15.3881C147.694 15.4009 147.657 15.4063 147.62 15.404H146.395C146.358 15.4062 146.32 15.4008 146.285 15.3881C146.25 15.3754 146.218 15.3556 146.191 15.33C146.165 15.3029 146.146 15.2708 146.133 15.2357C146.12 15.2006 146.115 15.1633 146.117 15.126V9.45002C146.117 8.83202 145.937 8.33102 145.579 7.94702C145.22 7.56402 144.744 7.37202 144.15 7.37202C143.618 7.37202 143.171 7.53002 142.805 7.84602C142.439 8.16202 142.227 8.58502 142.164 9.11702V15.128C142.166 15.1653 142.161 15.2026 142.148 15.2377C142.136 15.2728 142.116 15.3049 142.09 15.332C142.063 15.3576 142.031 15.3774 141.996 15.3901C141.961 15.4029 141.924 15.4083 141.887 15.406H140.662C140.625 15.4084 140.587 15.403 140.552 15.3902C140.517 15.3775 140.485 15.3577 140.458 15.332C140.432 15.3049 140.413 15.2728 140.4 15.2377C140.387 15.2026 140.382 15.1653 140.384 15.128V6.24002C140.384 6.15402 140.408 6.08602 140.458 6.03702C140.485 6.01135 140.517 5.99153 140.552 5.9788C140.587 5.96607 140.625 5.9607 140.662 5.96302H141.887C141.973 5.96302 142.041 5.98702 142.09 6.03702C142.14 6.08602 142.164 6.15402 142.164 6.24002V6.76002C142.164 6.79702 142.177 6.82202 142.201 6.83402C142.226 6.84702 142.244 6.84102 142.258 6.81502C142.778 6.16002 143.557 5.83302 144.595 5.83302C145.609 5.83302 146.413 6.12602 147.006 6.71302V6.71302ZM155.484 7.35302C155.457 7.3787 155.425 7.39852 155.39 7.41125C155.355 7.42398 155.317 7.42935 155.28 7.42702H153.388C153.326 7.42702 153.294 7.45802 153.294 7.52002V12.362C153.294 12.894 153.409 13.271 153.638 13.494C153.867 13.717 154.234 13.828 154.742 13.828H155.187C155.224 13.8262 155.261 13.8318 155.297 13.8445C155.332 13.8572 155.364 13.8767 155.391 13.902C155.441 13.952 155.465 14.02 155.465 14.106V15.071C155.465 15.245 155.372 15.343 155.187 15.368L154.426 15.387C153.474 15.387 152.763 15.22 152.292 14.886C151.822 14.552 151.587 13.928 151.587 13.012V7.52002C151.587 7.45802 151.557 7.42702 151.495 7.42702H150.474C150.437 7.42935 150.399 7.42398 150.364 7.41125C150.329 7.39852 150.297 7.3787 150.27 7.35302C150.244 7.32592 150.225 7.29382 150.212 7.25872C150.199 7.22363 150.194 7.18629 150.196 7.14902V6.24002C150.196 6.15402 150.22 6.08602 150.27 6.03702C150.297 6.01135 150.329 5.99153 150.364 5.9788C150.399 5.96607 150.437 5.9607 150.474 5.96302H151.495C151.557 5.96302 151.587 5.93202 151.587 5.87002V3.79202C151.587 3.70502 151.612 3.63802 151.661 3.58802C151.688 3.56242 151.721 3.54265 151.756 3.52993C151.791 3.51721 151.829 3.5118 151.866 3.51402H153.016C153.102 3.51402 153.17 3.53802 153.219 3.58802C153.269 3.63802 153.293 3.70502 153.293 3.79202V5.87002C153.293 5.93202 153.324 5.96302 153.387 5.96302H155.279C155.366 5.96302 155.434 5.98702 155.483 6.03702C155.508 6.06411 155.528 6.09606 155.541 6.13095C155.554 6.16584 155.559 6.20294 155.557 6.24002V7.14902C155.56 7.18624 155.555 7.2236 155.542 7.25873C155.53 7.29386 155.51 7.32598 155.484 7.35302V7.35302ZM159.463 14.858C158.789 14.394 158.317 13.748 158.045 12.919C157.822 12.252 157.711 11.497 157.711 10.656C157.711 9.77802 157.815 9.03602 158.025 8.42902C158.296 7.61302 158.773 6.97302 159.454 6.50902C160.135 6.04502 160.944 5.81402 161.885 5.81402C162.776 5.81402 163.551 6.04502 164.213 6.50902C164.874 6.97302 165.348 7.60702 165.632 8.41002C165.855 9.04102 165.966 9.78302 165.966 10.637C165.966 11.502 165.855 12.263 165.632 12.918C165.36 13.747 164.89 14.394 164.223 14.857C163.555 15.321 162.769 15.552 161.866 15.552C160.938 15.553 160.137 15.322 159.463 14.858V14.858ZM163.164 13.596C163.535 13.318 163.801 12.925 163.963 12.417C164.098 11.947 164.166 11.366 164.166 10.674C164.166 9.98202 164.104 9.40602 163.98 8.94802C163.82 8.44102 163.554 8.04902 163.183 7.77002C162.812 7.49102 162.36 7.35202 161.828 7.35202C161.321 7.35202 160.883 7.49202 160.512 7.77002C160.141 8.04802 159.875 8.44102 159.714 8.94802C159.578 9.38102 159.51 9.95602 159.51 10.674C159.51 11.391 159.578 11.973 159.714 12.417C159.862 12.925 160.125 13.317 160.502 13.596C160.879 13.875 161.334 14.013 161.865 14.013C162.332 14.0225 162.79 13.8757 163.164 13.596V13.596ZM173.888 6.07302C174.024 6.14702 174.074 6.26502 174.036 6.42602L173.776 7.63202C173.763 7.75602 173.702 7.81802 173.59 7.81802C173.54 7.81982 173.49 7.81341 173.442 7.79902C173.238 7.73428 173.025 7.70288 172.811 7.70602C172.687 7.70602 172.595 7.71302 172.533 7.72502C171.951 7.75002 171.472 7.95102 171.095 8.32902C170.718 8.70602 170.529 9.19802 170.529 9.80402V15.128C170.531 15.1653 170.526 15.2026 170.513 15.2377C170.501 15.2728 170.481 15.3049 170.455 15.332C170.428 15.3576 170.396 15.3774 170.361 15.3901C170.326 15.4029 170.289 15.4083 170.252 15.406H169.027C168.99 15.4084 168.952 15.403 168.917 15.3902C168.882 15.3775 168.85 15.3577 168.823 15.332C168.797 15.3049 168.778 15.2728 168.765 15.2377C168.752 15.2026 168.747 15.1653 168.749 15.128V6.24002C168.749 6.15402 168.773 6.08602 168.823 6.03702C168.85 6.01135 168.882 5.99153 168.917 5.9788C168.952 5.96607 168.99 5.9607 169.027 5.96302H170.252C170.338 5.96302 170.406 5.98702 170.455 6.03702C170.505 6.08602 170.529 6.15402 170.529 6.24002V7.09402C170.529 7.14402 170.539 7.17202 170.557 7.17802C170.575 7.18402 170.597 7.16802 170.622 7.13102C171.179 6.29002 171.933 5.87002 172.885 5.87002C173.257 5.87002 173.591 5.93702 173.888 6.07302Z" fill="#F7EEEE"/>
<path d="M24.762 12.1669C24.6562 12.167 24.5517 12.1448 24.455 12.1019L18.017 9.21893C17.885 9.1596 17.7729 9.06338 17.6943 8.94186C17.6157 8.82033 17.5739 8.67867 17.5739 8.53393C17.5739 8.38919 17.6157 8.24754 17.6943 8.12601C17.7729 8.00449 17.885 7.90827 18.017 7.84893L24.455 4.97593C24.6367 4.89526 24.843 4.88984 25.0287 4.96087C25.2144 5.03189 25.3645 5.17358 25.446 5.35493C25.5266 5.53679 25.5319 5.74318 25.4607 5.92891C25.3894 6.11465 25.2475 6.2646 25.066 6.34593L20.161 8.53493L25.067 10.7319C25.2239 10.8019 25.352 10.9235 25.4299 11.0766C25.5079 11.2297 25.5309 11.4048 25.4952 11.5729C25.4595 11.7409 25.3672 11.8915 25.2337 11.9997C25.1003 12.1078 24.9338 12.1668 24.762 12.1669V12.1669Z" fill="#8FEEFF"/>
<path d="M15.988 22.626C8.91004 22.626 2.72204 17.848 0.943039 11.006C0.892913 10.8136 0.921277 10.6091 1.02189 10.4376C1.1225 10.2661 1.28712 10.1416 1.47954 10.0915C1.67195 10.0414 1.8764 10.0697 2.0479 10.1703C2.2194 10.2709 2.34391 10.4356 2.39404 10.628C3.17883 13.6354 4.93913 16.2976 7.39914 18.1973C9.85915 20.0971 12.8799 21.1271 15.988 21.126C16.187 21.126 16.3777 21.205 16.5184 21.3456C16.659 21.4863 16.738 21.6771 16.738 21.876C16.738 22.0749 16.659 22.2657 16.5184 22.4063C16.3777 22.547 16.187 22.626 15.988 22.626V22.626Z" fill="#9EB3FE"/>
<path d="M13.4041 16.398C13.2051 16.398 13.0144 16.319 12.8737 16.1783C12.7331 16.0377 12.6541 15.8469 12.6541 15.648V1.39099C12.6541 1.19208 12.7331 1.00131 12.8737 0.860661C13.0144 0.720009 13.2051 0.640991 13.4041 0.640991C13.603 0.640991 13.7937 0.720009 13.9344 0.860661C14.075 1.00131 14.1541 1.19208 14.1541 1.39099V15.648C14.1541 15.8469 14.075 16.0377 13.9344 16.1783C13.7937 16.319 13.603 16.398 13.4041 16.398Z" fill="#8FEEFF"/>
<path d="M41.71 24.7979C41.6115 24.7982 41.5139 24.7789 41.4229 24.7411C41.332 24.7033 41.2494 24.6479 41.18 24.5779L37.907 21.3039L34.634 24.5769C34.5643 24.6466 34.4816 24.7019 34.3906 24.7396C34.2996 24.7773 34.202 24.7967 34.1035 24.7967C34.005 24.7967 33.9074 24.7773 33.8164 24.7396C33.7254 24.7019 33.6427 24.6466 33.573 24.5769C33.5033 24.5073 33.4481 24.4246 33.4104 24.3335C33.3727 24.2425 33.3533 24.145 33.3533 24.0464C33.3533 23.9479 33.3727 23.8504 33.4104 23.7593C33.4481 23.6683 33.5033 23.5856 33.573 23.5159L37.377 19.7119C37.4466 19.6423 37.5292 19.587 37.6201 19.5493C37.7111 19.5116 37.8086 19.4922 37.907 19.4922C38.0055 19.4922 38.1029 19.5116 38.1939 19.5493C38.2848 19.587 38.3674 19.6423 38.437 19.7119L42.241 23.5169C42.3462 23.6218 42.4178 23.7556 42.4469 23.9013C42.4759 24.0469 42.4611 24.1979 42.4042 24.3351C42.3473 24.4723 42.251 24.5896 42.1274 24.672C42.0038 24.7544 41.8585 24.7982 41.71 24.7979V24.7979Z" fill="#F9C7C5"/>
<path d="M49.3161 24.798C49.2176 24.7981 49.12 24.7788 49.0291 24.741C48.9381 24.7032 48.8555 24.6478 48.7861 24.578L45.5131 21.304L42.2411 24.577C42.1714 24.6467 42.0887 24.7019 41.9977 24.7396C41.9066 24.7773 41.8091 24.7967 41.7106 24.7967C41.612 24.7967 41.5145 24.7773 41.4235 24.7396C41.3324 24.7019 41.2497 24.6467 41.1801 24.577C41.1104 24.5073 41.0551 24.4246 41.0174 24.3336C40.9797 24.2426 40.9603 24.145 40.9603 24.0465C40.9603 23.948 40.9797 23.8504 41.0174 23.7594C41.0551 23.6684 41.1104 23.5857 41.1801 23.516L44.9831 19.712C45.1265 19.5766 45.3163 19.5012 45.5136 19.5012C45.7108 19.5012 45.9006 19.5766 46.0441 19.712L49.8481 23.517C49.9533 23.6219 50.025 23.7558 50.054 23.9016C50.083 24.0473 50.0681 24.1984 50.0111 24.3357C49.9541 24.4729 49.8576 24.5901 49.7338 24.6724C49.6101 24.7548 49.4647 24.7985 49.3161 24.798V24.798Z" fill="#F9C7C5"/>
<path d="M56.924 24.7979C56.8253 24.7982 56.7276 24.7788 56.6365 24.7411C56.5453 24.7033 56.4626 24.6479 56.393 24.5779L53.121 21.3039L49.848 24.5769C49.7783 24.6466 49.6956 24.7018 49.6046 24.7395C49.5136 24.7772 49.416 24.7966 49.3175 24.7966C49.219 24.7966 49.1214 24.7772 49.0304 24.7395C48.9394 24.7018 48.8567 24.6466 48.787 24.5769C48.7173 24.5072 48.6621 24.4245 48.6244 24.3335C48.5867 24.2425 48.5673 24.1449 48.5673 24.0464C48.5673 23.9479 48.5867 23.8503 48.6244 23.7593C48.6621 23.6683 48.7173 23.5856 48.787 23.5159L52.591 19.7119C52.7316 19.5714 52.9222 19.4926 53.121 19.4926C53.3197 19.4926 53.5104 19.5714 53.651 19.7119L57.454 23.5169C57.5591 23.6217 57.6307 23.7554 57.6598 23.901C57.6889 24.0465 57.6741 24.1975 57.6174 24.3346C57.5606 24.4718 57.4644 24.589 57.341 24.6715C57.2176 24.754 57.0724 24.798 56.924 24.7979V24.7979Z" fill="#F9C7C5"/>
<path d="M64.529 24.798C64.4306 24.7981 64.3332 24.7787 64.2424 24.741C64.1516 24.7032 64.0692 24.6478 64 24.578L60.727 21.304L57.454 24.577C57.3843 24.6467 57.3016 24.7019 57.2106 24.7396C57.1195 24.7773 57.022 24.7967 56.9235 24.7967C56.8249 24.7967 56.7274 24.7773 56.6364 24.7396C56.5453 24.7019 56.4626 24.6467 56.393 24.577C56.3233 24.5073 56.268 24.4246 56.2303 24.3336C56.1926 24.2426 56.1732 24.145 56.1732 24.0465C56.1732 23.948 56.1926 23.8504 56.2303 23.7594C56.268 23.6684 56.3233 23.5857 56.393 23.516L60.196 19.712C60.3394 19.5766 60.5292 19.5012 60.7265 19.5012C60.9237 19.5012 61.1135 19.5766 61.257 19.712L65.062 23.517C65.1672 23.622 65.2389 23.756 65.2679 23.9018C65.2969 24.0477 65.2819 24.1988 65.2248 24.3361C65.1676 24.4734 65.071 24.5906 64.9471 24.6729C64.8232 24.7551 64.6777 24.7987 64.529 24.798V24.798Z" fill="#F9C7C5"/>
<path d="M72.137 24.798C72.0385 24.7981 71.941 24.7788 71.85 24.741C71.759 24.7032 71.6764 24.6478 71.607 24.578L68.333 21.304L65.062 24.577C64.9923 24.6467 64.9096 24.7019 64.8186 24.7396C64.7276 24.7773 64.63 24.7967 64.5315 24.7967C64.433 24.7967 64.3354 24.7773 64.2444 24.7396C64.1534 24.7019 64.0707 24.6467 64.001 24.577C63.9313 24.5073 63.8761 24.4246 63.8384 24.3336C63.8007 24.2426 63.7812 24.145 63.7812 24.0465C63.7813 23.948 63.8007 23.8504 63.8384 23.7594C63.8761 23.6684 63.9313 23.5857 64.001 23.516L67.804 19.712C67.9475 19.5766 68.1372 19.5012 68.3345 19.5012C68.5317 19.5012 68.7215 19.5766 68.865 19.712L72.669 23.517C72.7742 23.6219 72.8459 23.7558 72.8749 23.9016C72.9039 24.0473 72.889 24.1984 72.832 24.3357C72.775 24.4729 72.6785 24.5901 72.5547 24.6724C72.431 24.7548 72.2856 24.7985 72.137 24.798V24.798Z" fill="#F9C7C5"/>
<path d="M79.7431 24.798C79.6446 24.7982 79.547 24.7789 79.456 24.7411C79.365 24.7034 79.2824 24.6479 79.2131 24.578L75.9401 21.304L72.6681 24.577C72.5984 24.6467 72.5157 24.7019 72.4247 24.7396C72.3337 24.7773 72.2361 24.7967 72.1376 24.7967C72.039 24.7967 71.9415 24.7773 71.8505 24.7396C71.7594 24.7019 71.6767 24.6467 71.6071 24.577C71.5374 24.5073 71.4821 24.4246 71.4444 24.3336C71.4067 24.2426 71.3873 24.145 71.3873 24.0465C71.3873 23.948 71.4067 23.8504 71.4444 23.7594C71.4821 23.6684 71.5374 23.5857 71.6071 23.516L75.4101 19.712C75.5535 19.5766 75.7433 19.5012 75.9406 19.5012C76.1378 19.5012 76.3276 19.5766 76.4711 19.712L80.2751 23.517C80.3803 23.6219 80.452 23.7558 80.481 23.9016C80.51 24.0473 80.4951 24.1984 80.4381 24.3357C80.3811 24.4729 80.2846 24.5901 80.1608 24.6724C80.0371 24.7548 79.8917 24.7985 79.7431 24.798V24.798Z" fill="#F9C7C5"/>
<path d="M87.3501 24.798C87.2516 24.7981 87.1541 24.7788 87.0631 24.741C86.9722 24.7032 86.8896 24.6478 86.8201 24.578L83.5471 21.304L80.2751 24.577C80.2055 24.6467 80.1227 24.7019 80.0317 24.7396C79.9407 24.7773 79.8431 24.7967 79.7446 24.7967C79.6461 24.7967 79.5485 24.7773 79.4575 24.7396C79.3665 24.7019 79.2838 24.6467 79.2141 24.577C79.1445 24.5073 79.0892 24.4246 79.0515 24.3336C79.0138 24.2426 78.9944 24.145 78.9944 24.0465C78.9944 23.948 79.0138 23.8504 79.0515 23.7594C79.0892 23.6684 79.1445 23.5857 79.2141 23.516L83.0171 19.712C83.1606 19.5766 83.3504 19.5012 83.5476 19.5012C83.7449 19.5012 83.9347 19.5766 84.0781 19.712L87.8821 23.517C87.9873 23.6219 88.059 23.7558 88.088 23.9016C88.117 24.0473 88.1021 24.1984 88.0451 24.3357C87.9881 24.4729 87.8916 24.5901 87.7679 24.6724C87.6441 24.7548 87.4987 24.7985 87.3501 24.798V24.798Z" fill="#F9C7C5"/>
<path d="M94.9571 24.7979C94.8584 24.7982 94.7607 24.7788 94.6695 24.7411C94.5784 24.7033 94.4957 24.6479 94.4261 24.5779L91.1541 21.3039L87.8811 24.5769C87.8114 24.6466 87.7287 24.7018 87.6377 24.7395C87.5467 24.7772 87.4491 24.7966 87.3506 24.7966C87.2521 24.7966 87.1545 24.7772 87.0635 24.7395C86.9725 24.7018 86.8897 24.6466 86.8201 24.5769C86.7504 24.5072 86.6952 24.4245 86.6575 24.3335C86.6198 24.2425 86.6003 24.1449 86.6003 24.0464C86.6003 23.9479 86.6198 23.8503 86.6575 23.7593C86.6952 23.6683 86.7504 23.5856 86.8201 23.5159L90.6241 19.7119C90.7647 19.5714 90.9553 19.4926 91.1541 19.4926C91.3528 19.4926 91.5435 19.5714 91.6841 19.7119L95.4871 23.5169C95.5922 23.6217 95.6638 23.7554 95.6929 23.901C95.722 24.0465 95.7072 24.1975 95.6505 24.3346C95.5937 24.4718 95.4975 24.589 95.3741 24.6715C95.2507 24.754 95.1055 24.798 94.9571 24.7979V24.7979Z" fill="#F9C7C5"/>
<path d="M102.562 24.7979C102.464 24.7981 102.366 24.7787 102.276 24.7409C102.185 24.7031 102.102 24.6478 102.033 24.5779L98.76 21.3039L95.487 24.5769C95.4174 24.6466 95.3347 24.7019 95.2436 24.7396C95.1526 24.7773 95.0551 24.7967 94.9565 24.7967C94.858 24.7967 94.7605 24.7773 94.6694 24.7396C94.5784 24.7019 94.4957 24.6466 94.426 24.5769C94.3564 24.5073 94.3011 24.4246 94.2634 24.3335C94.2257 24.2425 94.2063 24.145 94.2063 24.0464C94.2063 23.9479 94.2257 23.8504 94.2634 23.7593C94.3011 23.6683 94.3564 23.5856 94.426 23.5159L98.23 19.7119C98.2996 19.6423 98.3822 19.587 98.4732 19.5493C98.5641 19.5116 98.6616 19.4922 98.76 19.4922C98.8585 19.4922 98.956 19.5116 99.0469 19.5493C99.1379 19.587 99.2205 19.6423 99.29 19.7119L103.094 23.5169C103.199 23.6219 103.271 23.7557 103.3 23.9015C103.329 24.0473 103.314 24.1983 103.257 24.3356C103.2 24.4729 103.104 24.5901 102.98 24.6724C102.856 24.7547 102.711 24.7984 102.562 24.7979V24.7979Z" fill="#F9C7C5"/>
<path d="M110.17 24.7979C110.072 24.798 109.974 24.7787 109.883 24.7409C109.792 24.7031 109.71 24.6477 109.64 24.5779L106.367 21.3039L103.095 24.5769C102.954 24.7176 102.764 24.7966 102.565 24.7966C102.366 24.7966 102.175 24.7176 102.034 24.5769C101.893 24.4362 101.814 24.2454 101.814 24.0464C101.814 23.8474 101.893 23.6566 102.034 23.5159L105.837 19.7119C105.978 19.5714 106.168 19.4926 106.367 19.4926C106.566 19.4926 106.756 19.5714 106.897 19.7119L110.701 23.5169C110.806 23.6218 110.878 23.7555 110.907 23.9012C110.936 24.0469 110.921 24.1979 110.864 24.3351C110.807 24.4723 110.711 24.5895 110.587 24.6719C110.464 24.7543 110.319 24.7982 110.17 24.7979V24.7979Z" fill="#F9C7C5"/>
</g>
<defs>
<clipPath id="clip0_118_60">
<rect width="175" height="25" fill="white"/>
</clipPath>
</defs>
</svg>
