<svg width="17" height="16" viewBox="0 0 17 16" fill="none" xmlns="http://www.w3.org/2000/svg">
<path d="M9.06699 0.430004L11.057 4.461C11.169 4.689 11.387 4.847 11.637 4.883L16.087 5.53C16.2293 5.55096 16.3629 5.61127 16.4728 5.70412C16.5827 5.79697 16.6644 5.91868 16.7088 6.05551C16.7532 6.19234 16.7585 6.33886 16.7241 6.47853C16.6897 6.6182 16.6169 6.74548 16.514 6.846L13.294 9.984C13.2045 10.0714 13.1375 10.1792 13.0989 10.2982C13.0602 10.4171 13.051 10.5437 13.072 10.667L13.832 15.098C13.8561 15.2399 13.8401 15.3857 13.7858 15.519C13.7314 15.6523 13.6409 15.7677 13.5244 15.8523C13.408 15.9368 13.2701 15.9871 13.1266 15.9975C12.983 16.0079 12.8394 15.9779 12.712 15.911L8.73199 13.819C8.62123 13.7609 8.49804 13.7306 8.37299 13.7306C8.24793 13.7306 8.12474 13.7609 8.01399 13.819L4.03399 15.911C3.90658 15.9777 3.7631 16.0074 3.6197 15.9969C3.47631 15.9864 3.33869 15.936 3.22237 15.8515C3.10605 15.767 3.01564 15.6517 2.96133 15.5185C2.90702 15.3854 2.89097 15.2398 2.91499 15.098L3.67499 10.667C3.69627 10.5437 3.68717 10.417 3.64849 10.298C3.60981 10.179 3.5427 10.0712 3.45299 9.984L0.232987 6.846C0.130064 6.74542 0.057308 6.61806 0.0229299 6.47831C-0.0114482 6.33856 -0.00607926 6.19199 0.0384308 6.05513C0.0829408 5.91827 0.16482 5.79658 0.274826 5.70379C0.384831 5.611 0.518584 5.55081 0.660987 5.53L5.10999 4.883C5.23359 4.86484 5.35095 4.81696 5.45197 4.74345C5.553 4.66995 5.63467 4.57303 5.68999 4.461L7.67999 0.430004C7.74402 0.300798 7.84288 0.192051 7.96541 0.116023C8.08795 0.0399951 8.22928 -0.000289917 8.37349 -0.000289917C8.51769 -0.000289917 8.65903 0.0399951 8.78156 0.116023C8.90409 0.192051 9.00295 0.300798 9.06699 0.430004Z" fill="#FC7614"/>
</svg>
