<svg width="162" height="108" viewBox="0 0 162 108" fill="none" xmlns="http://www.w3.org/2000/svg">
<path d="M30.001 93.744H29.957C29.4183 93.6996 28.8813 93.6365 28.347 93.555C28.2043 93.5344 28.0756 93.458 27.9893 93.3426C27.9029 93.2272 27.8659 93.0822 27.8865 92.9395C27.9071 92.7968 27.9834 92.6681 28.0989 92.5818C28.2143 92.4954 28.3593 92.4584 28.502 92.479C29.022 92.555 29.542 92.614 30.065 92.657C30.2077 92.6627 30.3423 92.7248 30.4391 92.8298C30.536 92.9347 30.5872 93.0738 30.5815 93.2165C30.5758 93.3592 30.5136 93.4938 30.4087 93.5906C30.3038 93.6875 30.1647 93.7387 30.022 93.733L30 93.743L30.001 93.744ZM35.371 93.539C35.2283 93.5496 35.0873 93.5031 34.9789 93.4097C34.8705 93.3163 34.8036 93.1837 34.793 93.041C34.7824 92.8983 34.8289 92.7572 34.9223 92.6488C35.0157 92.5405 35.1483 92.4736 35.291 92.463C35.8082 92.3817 36.322 92.2796 36.831 92.157C36.8998 92.1409 36.9712 92.1385 37.0409 92.15C37.1106 92.1616 37.1774 92.1868 37.2374 92.2243C37.2973 92.2617 37.3493 92.3107 37.3902 92.3683C37.4312 92.4259 37.4603 92.4911 37.476 92.56C37.5085 92.6983 37.485 92.8438 37.4106 92.9648C37.3363 93.0858 37.217 93.1725 37.079 93.206C36.542 93.335 36.005 93.442 35.468 93.529L35.371 93.539ZM23.234 92.227C23.1715 92.2267 23.1096 92.2156 23.051 92.194C22.536 92.0085 22.0274 91.8057 21.526 91.586C21.4008 91.5258 21.3037 91.4196 21.2549 91.2896C21.2062 91.1596 21.2094 91.0157 21.2641 90.888C21.3188 90.7604 21.4207 90.6587 21.5484 90.6043C21.6762 90.5499 21.8201 90.5469 21.95 90.596C22.433 90.806 22.933 91 23.422 91.183C23.5415 91.2261 23.6419 91.3102 23.7054 91.4203C23.7688 91.5303 23.7913 91.6593 23.7688 91.7844C23.7463 91.9094 23.6802 92.0225 23.5823 92.1035C23.4844 92.1845 23.3611 92.2282 23.234 92.227ZM41.993 91.398C41.8706 91.3996 41.7514 91.3595 41.6549 91.2842C41.5584 91.209 41.4905 91.1031 41.4623 90.984C41.4341 90.8649 41.4473 90.7398 41.4998 90.6293C41.5523 90.5187 41.6409 90.4294 41.751 90.376C42.218 90.15 42.685 89.897 43.141 89.634C43.2021 89.5987 43.2695 89.5757 43.3394 89.5664C43.4094 89.5572 43.4804 89.5618 43.5486 89.58C43.6167 89.5982 43.6807 89.6296 43.7367 89.6725C43.7927 89.7154 43.8397 89.7689 43.875 89.83C43.9103 89.8911 43.9333 89.9585 43.9425 90.0284C43.9518 90.0984 43.9472 90.1694 43.929 90.2376C43.9108 90.3057 43.8794 90.3696 43.8365 90.4257C43.7936 90.4817 43.7401 90.5287 43.679 90.564C43.201 90.839 42.712 91.102 42.229 91.344C42.1488 91.3832 42.0602 91.4017 41.971 91.398H41.993ZM16.999 89.106C16.8967 89.1076 16.796 89.0798 16.709 89.026C16.252 88.736 15.796 88.429 15.349 88.116C15.2911 88.0758 15.2417 88.0246 15.2035 87.9653C15.1654 87.906 15.1393 87.8398 15.1268 87.7705C15.1143 87.7011 15.1155 87.6299 15.1305 87.5611C15.1454 87.4922 15.1738 87.4269 15.214 87.369C15.2542 87.3111 15.3054 87.2616 15.3647 87.2235C15.424 87.1854 15.4902 87.1593 15.5595 87.1468C15.6289 87.1342 15.7001 87.1355 15.7689 87.1505C15.8378 87.1654 15.9031 87.1938 15.961 87.234C16.397 87.541 16.837 87.831 17.283 88.117C17.38 88.1796 17.4544 88.2718 17.495 88.3799C17.5356 88.4881 17.5403 88.6064 17.5084 88.7174C17.4766 88.8284 17.4099 88.9262 17.3181 88.9964C17.2264 89.0666 17.1145 89.1053 16.999 89.107V89.106ZM47.771 87.562C47.6931 87.5614 47.6162 87.5438 47.5457 87.5104C47.4753 87.4771 47.4129 87.4288 47.363 87.369C47.2705 87.2603 47.2248 87.1194 47.2361 86.9771C47.2473 86.8348 47.3145 86.7028 47.423 86.61L47.54 86.486C47.895 86.18 48.255 85.862 48.614 85.529C48.6659 85.4811 48.7267 85.4438 48.7929 85.4194C48.8592 85.3949 48.9296 85.3838 49.0002 85.3866C49.0708 85.3894 49.1401 85.406 49.2043 85.4356C49.2684 85.4652 49.3261 85.5071 49.374 85.559C49.4219 85.6109 49.4592 85.6717 49.4836 85.7379C49.508 85.8042 49.5192 85.8746 49.5164 85.9452C49.5136 86.0158 49.497 86.0851 49.4674 86.1492C49.4378 86.2134 49.3959 86.2711 49.344 86.319C48.969 86.664 48.604 86.992 48.238 87.304L48.115 87.406C48.023 87.4979 47.9008 87.5534 47.771 87.562ZM11.445 84.872C11.3118 84.8716 11.1835 84.8217 11.085 84.732C10.683 84.362 10.285 83.985 9.905 83.608C9.81531 83.506 9.76745 83.3738 9.77101 83.238C9.77458 83.1022 9.82929 82.9727 9.92421 82.8755C10.0191 82.7783 10.1473 82.7206 10.2829 82.7138C10.4186 82.707 10.5519 82.7517 10.656 82.839C11.032 83.21 11.419 83.576 11.811 83.915C11.8636 83.9629 11.9062 84.0207 11.9363 84.0851C11.9664 84.1495 11.9834 84.2193 11.9864 84.2903C11.9893 84.3614 11.9782 84.4323 11.9536 84.499C11.929 84.5657 11.8914 84.6269 11.843 84.679C11.7943 84.7378 11.7336 84.7855 11.6649 84.8189C11.5963 84.8524 11.5213 84.8708 11.445 84.873V84.872ZM52.75 82.662C52.6458 82.6623 52.5437 82.6322 52.4563 82.5754C52.3688 82.5187 52.2998 82.4377 52.2576 82.3424C52.2154 82.2471 52.2019 82.1415 52.2186 82.0387C52.2354 81.9358 52.2817 81.84 52.352 81.763C52.707 81.37 53.067 80.973 53.426 80.563C53.4726 80.5101 53.5292 80.4668 53.5925 80.4358C53.6559 80.4047 53.7247 80.3865 53.7951 80.382C53.8654 80.3775 53.936 80.387 54.0028 80.4098C54.0695 80.4326 54.1311 80.4684 54.184 80.515C54.2369 80.5616 54.2801 80.6182 54.3112 80.6815C54.3423 80.7448 54.3605 80.8137 54.365 80.884C54.3694 80.9544 54.36 81.025 54.3372 81.0918C54.3144 81.1585 54.2786 81.2201 54.232 81.273C53.867 81.688 53.507 82.091 53.158 82.483C53.1044 82.5354 53.0404 82.576 52.9701 82.6022C52.8998 82.6284 52.8249 82.6395 52.75 82.635V82.661V82.662ZM6.725 79.723C6.64348 79.7234 6.56293 79.7053 6.48947 79.6699C6.416 79.6346 6.35155 79.5829 6.301 79.519C5.96281 79.0895 5.63308 78.6534 5.312 78.211C5.27062 78.1534 5.241 78.0883 5.22483 78.0193C5.20867 77.9502 5.20628 77.8787 5.21779 77.8088C5.22931 77.7388 5.25451 77.6718 5.29196 77.6116C5.3294 77.5515 5.37835 77.4992 5.436 77.458C5.55148 77.3758 5.69479 77.3428 5.8346 77.366C5.9744 77.3892 6.09931 77.4669 6.182 77.582C6.494 78.007 6.811 78.432 7.144 78.852C7.20599 78.9313 7.24455 79.0263 7.25531 79.1264C7.26607 79.2264 7.24861 79.3275 7.2049 79.4181C7.1612 79.5088 7.09299 79.5854 7.00799 79.6392C6.923 79.6931 6.82463 79.7221 6.724 79.723H6.725ZM57.304 77.34C57.2024 77.3398 57.1029 77.311 57.017 77.2567C56.9311 77.2024 56.8623 77.125 56.8185 77.0333C56.7747 76.9417 56.7577 76.8395 56.7695 76.7386C56.7812 76.6377 56.8213 76.5421 56.885 76.463C57.223 76.049 57.562 75.635 57.9 75.21C57.9441 75.155 57.9987 75.1092 58.0605 75.0752C58.1223 75.0413 58.1902 75.0198 58.2603 75.0121C58.3304 75.0044 58.4014 75.0106 58.4691 75.0303C58.5368 75.05 58.6 75.0829 58.655 75.127C58.71 75.1711 58.7558 75.2256 58.7898 75.2875C58.8237 75.3493 58.8452 75.4172 58.8529 75.4873C58.8606 75.5574 58.8544 75.6283 58.8347 75.6961C58.815 75.7638 58.7821 75.827 58.738 75.882L57.718 77.141C57.668 77.2027 57.6049 77.2526 57.5334 77.287C57.4618 77.3214 57.3834 77.3395 57.304 77.34ZM2.901 73.887C2.80091 73.8843 2.70358 73.8536 2.62 73.7985C2.53642 73.7433 2.46992 73.6659 2.428 73.575C2.171 73.075 1.929 72.575 1.714 72.09C1.67146 71.9928 1.65857 71.8851 1.67695 71.7806C1.69532 71.6761 1.74415 71.5793 1.8173 71.5024C1.89045 71.4255 1.98468 71.3719 2.08816 71.3484C2.19164 71.3248 2.29977 71.3323 2.399 71.37C2.532 71.422 2.639 71.524 2.697 71.655C2.907 72.117 3.137 72.601 3.384 73.08C3.42652 73.1624 3.44703 73.2545 3.44355 73.3472C3.44008 73.4399 3.41273 73.5302 3.36416 73.6092C3.31558 73.6882 3.24743 73.7534 3.16629 73.7984C3.08515 73.8434 2.99377 73.8667 2.901 73.866V73.887ZM61.654 71.859C61.5536 71.8589 61.4552 71.8307 61.37 71.7775C61.2848 71.7243 61.2163 71.6483 61.1721 71.5581C61.128 71.4679 61.11 71.3672 61.1202 71.2673C61.1304 71.1674 61.1685 71.0723 61.23 70.993L62.218 69.718C62.2593 69.6575 62.3125 69.6062 62.3743 69.5671C62.4362 69.5279 62.5054 69.5018 62.5777 69.4904C62.65 69.479 62.7239 69.4825 62.7948 69.5007C62.8657 69.5189 62.9321 69.5513 62.99 69.5961C63.0479 69.6409 63.096 69.6971 63.1314 69.7611C63.1668 69.8252 63.1888 69.8958 63.1959 69.9687C63.203 70.0415 63.1952 70.115 63.1728 70.1847C63.1505 70.2544 63.1141 70.3188 63.066 70.374L62.078 71.649C62.0259 71.71 61.9607 71.7586 61.8873 71.7911C61.814 71.8237 61.7342 71.8393 61.654 71.837V71.859ZM0.683 67.286C0.552668 67.2873 0.426321 67.2411 0.327517 67.1561C0.228713 67.0711 0.164197 66.953 0.146 66.824C0.0705263 66.272 0.022135 65.7167 0.00100004 65.16C-0.00347393 65.0867 0.00709617 65.0133 0.0320597 64.9443C0.0570233 64.8752 0.095852 64.812 0.146156 64.7585C0.19646 64.7051 0.257175 64.6625 0.324563 64.6334C0.391951 64.6042 0.464587 64.5892 0.538 64.5892C0.611413 64.5892 0.684049 64.6042 0.751437 64.6334C0.818825 64.6625 0.87954 64.7051 0.929844 64.7585C0.980148 64.812 1.01898 64.8752 1.04394 64.9443C1.0689 65.0133 1.07947 65.0867 1.075 65.16C1.093 65.679 1.138 66.196 1.209 66.71C1.21857 66.7802 1.21421 66.8516 1.19617 66.9201C1.17813 66.9886 1.14675 67.0529 1.10384 67.1093C1.06093 67.1656 1.00733 67.213 0.946101 67.2487C0.88487 67.2843 0.817213 67.3075 0.747 67.317L0.683 67.285V67.286ZM65.923 66.313C65.8219 66.3142 65.7225 66.2868 65.6363 66.234C65.55 66.1813 65.4804 66.1052 65.4355 66.0146C65.3906 65.924 65.3722 65.8226 65.3823 65.722C65.3925 65.6214 65.4309 65.5257 65.493 65.446L66.477 64.166C66.5197 64.11 66.573 64.0629 66.6338 64.0275C66.6947 63.9921 66.7619 63.969 66.8317 63.9596C66.9015 63.9502 66.9725 63.9546 67.0405 63.9726C67.1086 63.9906 67.1725 64.0218 67.2285 64.0645C67.2845 64.1072 67.3316 64.1605 67.367 64.2213C67.4024 64.2822 67.4255 64.3494 67.4349 64.4192C67.4443 64.489 67.4399 64.56 67.4219 64.628C67.4039 64.6961 67.3727 64.76 67.33 64.816L66.337 66.081C66.2881 66.1447 66.2255 66.1967 66.1539 66.233C66.0822 66.2694 66.0033 66.2892 65.923 66.291V66.313ZM154.413 63.353C154.363 63.3582 154.313 63.3582 154.263 63.353C154.195 63.3333 154.132 63.3005 154.077 63.2564C154.022 63.2123 153.976 63.1577 153.942 63.0959C153.908 63.034 153.886 62.9661 153.879 62.8959C153.871 62.8257 153.877 62.7547 153.897 62.687C154.031 62.213 154.177 61.697 154.321 61.143C154.339 61.0745 154.369 61.0101 154.412 60.9535C154.454 60.8969 154.507 60.8493 154.568 60.8132C154.629 60.7772 154.696 60.7535 154.766 60.7435C154.836 60.7335 154.908 60.7374 154.976 60.755C155.045 60.773 155.109 60.8044 155.166 60.8475C155.222 60.8907 155.27 60.9446 155.305 61.0062C155.341 61.0677 155.364 61.1358 155.373 61.2063C155.382 61.2768 155.377 61.3484 155.358 61.417C155.213 61.955 155.068 62.493 154.928 62.982C154.893 63.0907 154.824 63.1854 154.731 63.2523C154.639 63.3192 154.527 63.3548 154.413 63.354V63.353ZM70.166 60.761C70.0652 60.7614 69.9664 60.7335 69.8808 60.6803C69.7952 60.6272 69.7263 60.551 69.6821 60.4605C69.6378 60.37 69.62 60.2688 69.6306 60.1686C69.6412 60.0684 69.6798 59.9732 69.742 59.894L70.725 58.614C70.7685 58.5579 70.8226 58.511 70.8842 58.4758C70.9458 58.4406 71.0137 58.4179 71.0841 58.409C71.1545 58.4001 71.226 58.4051 71.2944 58.4238C71.3628 58.4425 71.4269 58.4745 71.483 58.518C71.5391 58.5615 71.586 58.6155 71.6212 58.6772C71.6564 58.7388 71.6791 58.8067 71.688 58.8771C71.6969 58.9475 71.6919 59.0189 71.6732 59.0874C71.6545 59.1558 71.6225 59.2199 71.579 59.276L70.59 60.551C70.5386 60.6097 70.475 60.6564 70.4037 60.688C70.3324 60.7196 70.255 60.7353 70.177 60.734L70.167 60.761H70.166ZM1.242 60.379C1.19028 60.3866 1.13772 60.3866 1.086 60.379C1.0185 60.3581 0.95577 60.3241 0.901397 60.279C0.847024 60.2339 0.802071 60.1785 0.769106 60.116C0.736141 60.0535 0.715808 59.9851 0.70927 59.9148C0.702732 59.8444 0.710116 59.7735 0.731 59.706C0.889825 59.1776 1.06896 58.6556 1.268 58.141C1.29187 58.0722 1.32949 58.0089 1.37857 57.9551C1.42766 57.9013 1.48717 57.858 1.55351 57.8279C1.61984 57.7979 1.6916 57.7816 1.76442 57.7801C1.83724 57.7786 1.90961 57.792 1.97711 57.8193C2.04461 57.8467 2.10584 57.8875 2.15707 57.9393C2.2083 57.9911 2.24846 58.0527 2.27511 58.1205C2.30176 58.1883 2.31434 58.2608 2.31209 58.3336C2.30983 58.4064 2.29279 58.478 2.262 58.544C2.069 59.034 1.892 59.529 1.725 60.018C1.68631 60.113 1.6212 60.195 1.53737 60.2542C1.45355 60.3134 1.35451 60.3473 1.252 60.352L1.242 60.379ZM156.024 56.516C155.99 56.5216 155.956 56.5216 155.922 56.516C155.783 56.4897 155.659 56.4094 155.579 56.2925C155.498 56.1757 155.467 56.0317 155.492 55.892C155.589 55.354 155.68 54.848 155.772 54.31C155.779 54.2358 155.802 54.1639 155.838 54.0987C155.874 54.0336 155.924 53.9765 155.983 53.9312C156.042 53.8858 156.11 53.8531 156.182 53.835C156.255 53.817 156.33 53.814 156.404 53.8262C156.477 53.8384 156.547 53.8655 156.61 53.906C156.673 53.9465 156.726 53.9993 156.768 54.0614C156.809 54.1234 156.837 54.1933 156.851 54.2667C156.864 54.34 156.862 54.4154 156.845 54.488C156.755 55.026 156.663 55.564 156.566 56.102C156.538 56.2231 156.468 56.3306 156.369 56.4061C156.27 56.4816 156.148 56.5204 156.024 56.516ZM74.461 55.209C74.3595 55.2098 74.2599 55.1819 74.1737 55.1284C74.0874 55.0749 74.0181 54.9981 73.9737 54.9068C73.9294 54.8156 73.9118 54.7136 73.923 54.6128C73.9342 54.5119 73.9737 54.4163 74.037 54.337L75.041 53.067C75.0852 53.012 75.1398 52.9662 75.2017 52.9323C75.2635 52.8983 75.3315 52.8769 75.4017 52.8693C75.4718 52.8616 75.5428 52.8678 75.6105 52.8876C75.6783 52.9074 75.7415 52.9403 75.7965 52.9845C75.8515 53.0287 75.8973 53.0833 75.9312 53.1452C75.9652 53.207 75.9866 53.275 75.9942 53.3452C76.0019 53.4153 75.9956 53.4863 75.9759 53.554C75.9561 53.6218 75.9232 53.685 75.879 53.74L74.88 55.004C74.8312 55.066 74.7694 55.1166 74.6989 55.152C74.6284 55.1874 74.5509 55.2069 74.472 55.209H74.462H74.461ZM4.437 54.165C4.33825 54.1638 4.24173 54.1355 4.15798 54.0831C4.07422 54.0308 4.00646 53.9564 3.96209 53.8682C3.91772 53.78 3.89844 53.6812 3.90636 53.5828C3.91428 53.4844 3.94909 53.39 4.007 53.31C4.33 52.874 4.673 52.438 5.027 52.013C5.11903 51.904 5.25059 51.836 5.39275 51.824C5.5349 51.812 5.676 51.857 5.785 51.949C5.894 52.041 5.96198 52.1726 5.97399 52.3147C5.98599 52.4569 5.94103 52.598 5.849 52.707C5.50925 53.108 5.18339 53.5206 4.872 53.944C4.82209 54.0126 4.75666 54.0683 4.68105 54.1067C4.60544 54.1452 4.52181 54.1651 4.437 54.165ZM78.845 49.748C78.7438 49.7469 78.645 49.7173 78.5598 49.6627C78.4747 49.6081 78.4066 49.5306 78.3634 49.4391C78.3202 49.3476 78.3036 49.2458 78.3156 49.1453C78.3276 49.0449 78.3675 48.9498 78.431 48.871L79.457 47.623C79.5008 47.5676 79.5551 47.5215 79.6167 47.4871C79.6784 47.4527 79.7462 47.4308 79.8163 47.4226C79.8864 47.4145 79.9574 47.4202 80.0253 47.4394C80.0932 47.4587 80.1566 47.4912 80.212 47.535C80.2673 47.5788 80.3135 47.6331 80.3479 47.6947C80.3823 47.7563 80.4042 47.8242 80.4124 47.8943C80.4205 47.9644 80.4148 48.0354 80.3955 48.1033C80.3763 48.1712 80.3438 48.2346 80.3 48.29L79.28 49.533C79.2295 49.6005 79.1637 49.6551 79.0882 49.6924C79.0126 49.7298 78.9293 49.7488 78.845 49.748ZM156.969 49.587H156.926C156.784 49.5757 156.653 49.5088 156.56 49.4009C156.468 49.293 156.422 49.1528 156.432 49.011C156.475 48.473 156.507 47.935 156.539 47.397C156.539 47.3241 156.554 47.2519 156.582 47.1849C156.611 47.1179 156.653 47.0574 156.706 47.0071C156.758 46.9568 156.821 46.9177 156.889 46.8922C156.957 46.8668 157.03 46.8555 157.103 46.859C157.398 46.877 157.623 47.129 157.608 47.424C157.58 47.9625 157.545 48.5005 157.501 49.038C157.502 49.1091 157.49 49.1797 157.464 49.2459C157.438 49.312 157.399 49.3724 157.349 49.4234C157.3 49.4745 157.241 49.5152 157.176 49.5433C157.11 49.5714 157.04 49.5862 156.969 49.587ZM9.281 49.13C9.1691 49.131 9.05969 49.097 8.96806 49.0327C8.87643 48.9685 8.80716 48.8772 8.76993 48.7717C8.7327 48.6661 8.72936 48.5516 8.76039 48.4441C8.79142 48.3366 8.85526 48.2415 8.943 48.172C9.743 47.526 10.259 47.182 10.28 47.166C10.3991 47.0877 10.5444 47.06 10.6839 47.0889C10.8234 47.1178 10.9458 47.2009 11.024 47.32C11.1022 47.4391 11.13 47.5844 11.1011 47.7239C11.0722 47.8634 10.9891 47.9857 10.87 48.064C10.87 48.064 10.371 48.398 9.62 49.006C9.52184 49.0877 9.39771 49.1317 9.27 49.13H9.281ZM83.356 44.39C83.2534 44.3893 83.1532 44.3593 83.0671 44.3035C82.9811 44.2477 82.9128 44.1683 82.8704 44.0749C82.828 43.9815 82.8133 43.8779 82.8279 43.7764C82.8425 43.6748 82.8859 43.5796 82.953 43.502C83.303 43.094 83.657 42.685 84.027 42.282C84.0736 42.2291 84.1302 42.1858 84.1935 42.1548C84.2569 42.1237 84.3257 42.1055 84.3961 42.101C84.4664 42.0965 84.537 42.106 84.6038 42.1288C84.6705 42.1516 84.7321 42.1874 84.785 42.234C84.8379 42.2806 84.8811 42.3372 84.9122 42.4005C84.9433 42.4638 84.9615 42.5327 84.966 42.603C84.9704 42.6734 84.961 42.744 84.9382 42.8107C84.9154 42.8775 84.8796 42.9391 84.833 42.992C84.478 43.395 84.123 43.798 83.759 44.207C83.7075 44.2658 83.6437 44.3126 83.5722 44.3442C83.5007 44.3758 83.4232 44.3915 83.345 44.39H83.355H83.356ZM157.098 42.593C156.961 42.5932 156.829 42.5411 156.729 42.4472C156.629 42.3533 156.569 42.2248 156.561 42.088C156.53 41.5494 156.49 41.0114 156.443 40.474C156.432 40.4013 156.437 40.3273 156.456 40.2564C156.475 40.1855 156.508 40.1192 156.553 40.0615C156.599 40.0039 156.656 39.9561 156.72 39.9212C156.785 39.8862 156.856 39.8648 156.929 39.8582C157.002 39.8516 157.076 39.8599 157.145 39.8828C157.215 39.9056 157.279 39.9424 157.335 39.991C157.39 40.0395 157.434 40.0988 157.466 40.1652C157.497 40.2316 157.514 40.3036 157.517 40.377C157.565 40.915 157.608 41.453 157.635 41.991C157.635 42.276 157.414 42.511 157.13 42.529L157.098 42.593ZM88.034 39.177C87.9293 39.177 87.8269 39.1464 87.7394 39.0889C87.6518 39.0315 87.583 38.9497 87.5413 38.8536C87.4997 38.7576 87.487 38.6514 87.5049 38.5483C87.5228 38.4451 87.5704 38.3494 87.642 38.273C88.007 37.875 88.377 37.483 88.748 37.095C88.8457 36.9917 88.9805 36.9314 89.1227 36.9275C89.2648 36.9236 89.4027 36.9763 89.506 37.074C89.6093 37.1717 89.6695 37.3065 89.6735 37.4486C89.6774 37.5908 89.6247 37.7287 89.527 37.832L88.453 39.005C88.3976 39.0653 88.3292 39.1122 88.2529 39.142C88.1767 39.1718 88.0946 39.1838 88.013 39.177H88.033H88.034ZM156.126 35.675C156.003 35.6785 155.883 35.6398 155.785 35.5654C155.688 35.491 155.618 35.3853 155.589 35.266C155.471 34.7504 155.335 34.2391 155.181 33.733C155.152 33.6003 155.175 33.4617 155.244 33.3449C155.313 33.2281 155.424 33.1416 155.554 33.1028C155.684 33.0641 155.824 33.0758 155.946 33.1357C156.068 33.1956 156.162 33.2993 156.211 33.426C156.362 33.964 156.507 34.476 156.636 35.013C156.653 35.0819 156.656 35.1534 156.645 35.2234C156.634 35.2934 156.609 35.3606 156.572 35.421C156.535 35.4815 156.487 35.5341 156.429 35.5758C156.372 35.6175 156.307 35.6474 156.238 35.664L156.126 35.674V35.675ZM92.905 34.163C92.7984 34.1629 92.6943 34.1311 92.6058 34.0717C92.5174 34.0122 92.4486 33.9278 92.4083 33.8291C92.368 33.7305 92.3579 33.6221 92.3794 33.5177C92.4009 33.4133 92.453 33.3177 92.529 33.243L93.694 32.113C93.7948 32.0118 93.9316 31.9548 94.0744 31.9545C94.2172 31.9542 94.3543 32.0107 94.4555 32.1115C94.5567 32.2123 94.6137 32.3491 94.614 32.4919C94.6142 32.6347 94.5578 32.7718 94.457 32.873C94.07 33.238 93.689 33.614 93.302 33.991C93.2489 34.0485 93.1839 34.0936 93.1115 34.1233C93.0391 34.153 92.9612 34.1666 92.883 34.163H92.905ZM98.045 29.418C97.9357 29.4182 97.8288 29.3851 97.7388 29.323C97.6488 29.2609 97.5799 29.1728 97.5413 29.0705C97.5027 28.9682 97.4963 28.8566 97.5229 28.7505C97.5494 28.6445 97.6077 28.549 97.69 28.477L98.925 27.401C98.9794 27.3555 99.0422 27.3211 99.1098 27.2999C99.1775 27.2787 99.2486 27.271 99.3192 27.2772C99.3898 27.2835 99.4585 27.3036 99.5214 27.3364C99.5842 27.3693 99.64 27.4141 99.6855 27.4685C99.731 27.5229 99.7654 27.5857 99.7866 27.6533C99.8078 27.7209 99.8155 27.7921 99.8093 27.8627C99.803 27.9333 99.7829 28.002 99.7501 28.0649C99.7172 28.1277 99.6724 28.1835 99.618 28.229C99.21 28.569 98.801 28.918 98.393 29.268C98.2935 29.3637 98.161 29.4174 98.023 29.418H98.044H98.045ZM153.242 28.843C152.995 28.375 152.737 27.912 152.463 27.465C152.422 27.4047 152.393 27.3365 152.379 27.2648C152.365 27.193 152.366 27.1191 152.381 27.0477C152.397 26.9762 152.427 26.9086 152.469 26.8492C152.512 26.7897 152.566 26.7395 152.629 26.7017C152.691 26.6639 152.761 26.6393 152.833 26.6294C152.906 26.6195 152.979 26.6245 153.05 26.6441C153.12 26.6637 153.186 26.6975 153.243 26.7434C153.3 26.7893 153.347 26.8463 153.381 26.911C153.666 27.374 153.918 27.858 154.192 28.342C154.236 28.4242 154.257 28.5164 154.254 28.6094C154.252 28.7024 154.225 28.7931 154.177 28.8728C154.129 28.9524 154.061 29.0182 153.98 29.0638C153.899 29.1094 153.807 29.1333 153.714 29.133C153.616 29.1321 153.521 29.1046 153.438 29.0536C153.355 29.0025 153.287 28.9297 153.242 28.843ZM103.501 25.055C103.387 25.0558 103.276 25.0204 103.183 24.954C103.09 24.8875 103.021 24.7934 102.985 24.6852C102.95 24.577 102.949 24.4602 102.984 24.3516C103.019 24.243 103.087 24.1483 103.179 24.081C103.619 23.759 104.059 23.447 104.499 23.135C104.576 23.0804 104.667 23.0472 104.761 23.0387C104.855 23.0303 104.95 23.0469 105.036 23.0869C105.122 23.1269 105.195 23.1888 105.249 23.2665C105.303 23.3441 105.336 23.4347 105.344 23.529C105.352 23.6231 105.335 23.7177 105.296 23.8033C105.256 23.8889 105.194 23.9626 105.117 24.017L103.817 24.947C103.72 25.0203 103.601 25.0584 103.479 25.055H103.501ZM149.633 23.495C149.562 23.4947 149.492 23.4803 149.426 23.4526C149.361 23.425 149.302 23.3847 149.252 23.334C148.893 22.975 148.512 22.617 148.108 22.258C148.055 22.2114 148.012 22.1549 147.981 22.0916C147.949 22.0283 147.931 21.9595 147.927 21.8891C147.922 21.8188 147.931 21.7482 147.954 21.6814C147.977 21.6146 148.012 21.553 148.059 21.5C148.106 21.447 148.162 21.4037 148.225 21.3726C148.289 21.3414 148.357 21.3231 148.428 21.3185C148.498 21.314 148.569 21.3233 148.636 21.346C148.702 21.3688 148.764 21.4044 148.817 21.451C149.225 21.811 149.627 22.193 150.014 22.586C150.114 22.6869 150.17 22.8233 150.17 22.9655C150.17 23.1076 150.114 23.244 150.014 23.345C149.961 23.3964 149.898 23.4363 149.828 23.4621C149.759 23.4879 149.685 23.4991 149.611 23.495H149.633ZM109.354 21.215C109.236 21.2158 109.12 21.1775 109.026 21.106C108.932 21.0346 108.864 20.9339 108.832 20.8198C108.801 20.7056 108.808 20.5843 108.853 20.4748C108.898 20.3652 108.978 20.2736 109.08 20.214C109.553 19.939 110.026 19.676 110.498 19.417C110.581 19.3693 110.674 19.3443 110.77 19.3446C110.865 19.3449 110.958 19.3704 111.041 19.4186C111.123 19.4667 111.191 19.5358 111.238 19.6188C111.285 19.7017 111.309 19.7957 111.308 19.891C111.308 19.9861 111.282 20.0794 111.234 20.1615C111.186 20.2437 111.118 20.3118 111.035 20.359C110.568 20.612 110.106 20.897 109.645 21.144C109.541 21.2053 109.42 21.2299 109.301 21.214H109.354V21.215ZM144.091 19.321C144 19.3213 143.911 19.2971 143.833 19.251C143.382 19.003 142.909 18.761 142.426 18.535C142.297 18.4737 142.197 18.3637 142.149 18.229C142.101 18.0944 142.109 17.9461 142.17 17.817C142.231 17.6878 142.341 17.5883 142.476 17.5403C142.611 17.4923 142.759 17.4997 142.888 17.561C143.387 17.798 143.876 18.051 144.348 18.309C144.454 18.3658 144.538 18.4563 144.586 18.5662C144.634 18.6761 144.645 18.799 144.615 18.9154C144.585 19.0318 144.518 19.1349 144.423 19.2084C144.328 19.2819 144.211 19.3215 144.091 19.321ZM115.601 18.126C115.475 18.1276 115.353 18.0849 115.255 18.0053C115.157 17.9257 115.091 17.8143 115.067 17.6906C115.043 17.5669 115.063 17.4388 115.125 17.3287C115.186 17.2185 115.283 17.1333 115.401 17.088C115.906 16.884 116.411 16.69 116.921 16.507C117.055 16.4585 117.203 16.4652 117.332 16.5256C117.461 16.5861 117.561 16.6954 117.609 16.8295C117.658 16.9636 117.651 17.1114 117.591 17.2405C117.53 17.3696 117.421 17.4695 117.287 17.518C116.792 17.696 116.298 17.884 115.804 18.088C115.726 18.1199 115.641 18.133 115.557 18.126H115.6H115.601ZM137.646 16.674C137.594 16.6792 137.542 16.6792 137.49 16.674C136.985 16.524 136.47 16.384 135.96 16.264C135.825 16.2239 135.71 16.1336 135.639 16.0115C135.568 15.8895 135.547 15.745 135.579 15.6076C135.611 15.4702 135.695 15.3503 135.812 15.2725C135.93 15.1947 136.073 15.1648 136.212 15.189C136.749 15.318 137.286 15.458 137.823 15.614C137.966 15.6339 138.095 15.7096 138.181 15.8246C138.268 15.9396 138.306 16.0843 138.286 16.227C138.266 16.3697 138.19 16.4986 138.075 16.5854C137.96 16.6723 137.816 16.7099 137.673 16.69L137.646 16.674ZM122.19 16.077C122.053 16.0849 121.918 16.0398 121.813 15.9511C121.707 15.8623 121.64 15.7367 121.625 15.6C121.61 15.4633 121.648 15.326 121.731 15.2164C121.814 15.1068 121.936 15.0333 122.072 15.011C122.609 14.904 123.146 14.801 123.682 14.721C123.776 14.7061 123.873 14.7164 123.962 14.7509C124.052 14.7854 124.13 14.8428 124.19 14.9174C124.25 14.992 124.289 15.0811 124.303 15.1757C124.318 15.2703 124.307 15.367 124.272 15.456C124.237 15.5447 124.18 15.6228 124.106 15.6825C124.032 15.7422 123.943 15.7813 123.849 15.796C123.312 15.878 122.813 15.974 122.292 16.082C122.258 16.0851 122.224 16.0834 122.19 16.077ZM130.745 15.474H130.707C130.181 15.4412 129.655 15.4212 129.128 15.414C128.989 15.408 128.859 15.3488 128.763 15.2486C128.667 15.1485 128.613 15.0152 128.613 14.8765C128.613 14.7378 128.667 14.6045 128.763 14.5044C128.859 14.4042 128.989 14.345 129.128 14.339C129.665 14.339 130.202 14.366 130.766 14.399C130.906 14.4075 131.036 14.47 131.131 14.5732C131.225 14.6764 131.275 14.8123 131.271 14.952C131.267 15.0917 131.208 15.2243 131.108 15.3218C131.008 15.4192 130.874 15.4738 130.734 15.474H130.744H130.745Z" fill="#E6E6E6"/>
<path d="M119.848 100.221H58.147L70.333 0.79303H125.358L131.105 8.39403L119.848 100.221Z" fill="#39475F"/>
<path d="M113.173 100.221H51.4659L63.6519 0.79303H125.358L113.173 100.221Z" fill="#61728D"/>
<path d="M110.133 81.354H58.577L67.368 9.659H118.925L110.133 81.354Z" fill="#181F27"/>
<path d="M92.744 50.055L107.641 50.232L107.351 52.54L92.744 52.288V50.055Z" fill="#1E252E"/>
<path d="M51.4659 100.221L58.8879 107.085L118.925 108L119.848 100.221H51.4659Z" fill="#39475F"/>
<path d="M99.097 29.058C99.097 29.058 101.669 29.241 102.985 34.088C104.301 38.935 103.85 52.465 103.85 52.465L92.754 52.288C92.754 52.288 87.217 32.151 99.097 29.058Z" fill="#2D394B"/>
<path d="M5.42102 32.843L45.779 0L66.959 26.119L26.604 58.96L5.42102 32.843Z" fill="#FC7614"/>
<path d="M27.491 21.931L45.561 7.22601L49.058 11.539L30.988 26.245L27.491 21.931Z" fill="white"/>
<path opacity="0.46" d="M25.273 45.175L30.611 40.83C30.8936 40.6001 31.2188 40.4281 31.5679 40.324C31.9171 40.2199 32.2833 40.1856 32.6457 40.2231C33.0081 40.2606 33.3596 40.3692 33.68 40.5427C34.0004 40.7161 34.2834 40.9511 34.513 41.234C34.9775 41.8062 35.1959 42.5395 35.1201 43.2726C35.0444 44.0058 34.6807 44.6789 34.109 45.144L28.771 49.488C28.4883 49.7181 28.1631 49.8902 27.8138 49.9944C27.4646 50.0986 27.0982 50.1329 26.7357 50.0954C26.3732 50.0579 26.0216 49.9492 25.7011 49.7757C25.3806 49.6021 25.0975 49.3671 24.868 49.084C24.4035 48.5117 24.1853 47.7783 24.2613 47.0452C24.3372 46.312 24.7011 45.639 25.273 45.174V45.175ZM37.331 35.365L54.221 21.622C54.5036 21.3921 54.8288 21.2201 55.1779 21.116C55.5271 21.0119 55.8933 20.9776 56.2557 21.0151C56.6181 21.0526 56.9696 21.1612 57.29 21.3347C57.6104 21.5081 57.8934 21.7431 58.123 22.026C58.5871 22.5983 58.8051 23.3314 58.7292 24.0643C58.6532 24.7972 58.2896 25.47 57.718 25.935L40.831 39.679C40.5483 39.9091 40.2231 40.0812 39.8738 40.1854C39.5246 40.2896 39.1582 40.3239 38.7957 40.2864C38.4332 40.2489 38.0816 40.1402 37.7611 39.9667C37.4406 39.7931 37.1575 39.5581 36.928 39.275C36.4635 38.7027 36.2453 37.9693 36.3213 37.2362C36.3972 36.503 36.7611 35.83 37.333 35.365H37.331Z" fill="white"/>
<path opacity="0.3" d="M17.938 37.316C19.9666 37.316 21.611 35.6684 21.611 33.636C21.611 31.6036 19.9666 29.956 17.938 29.956C15.9095 29.956 14.265 31.6036 14.265 33.636C14.265 35.6684 15.9095 37.316 17.938 37.316Z" fill="white"/>
<path opacity="0.3" d="M21.6649 33.964C23.6935 33.964 25.3379 32.3164 25.3379 30.284C25.3379 28.2516 23.6935 26.604 21.6649 26.604C19.6364 26.604 17.9919 28.2516 17.9919 30.284C17.9919 32.3164 19.6364 33.964 21.6649 33.964Z" fill="white"/>
<path d="M99.097 29.058C99.097 29.058 93.259 31.161 95.294 47.639C96.787 59.712 91.744 75.695 84.29 75.889C76.836 76.082 63.088 75.426 63.088 75.426C63.088 75.426 70.247 56.866 68.764 41.281C68.5363 39.099 68.7969 36.8937 69.527 34.825C70.397 32.452 72.014 29.983 75.021 29.58C81.025 28.762 99.097 29.058 99.097 29.058Z" fill="#BAD6FA"/>
<path d="M58.958 76.63L85.3 76.093C85.3 76.093 81.283 72.101 81.03 61.939L44.796 62.477C45.417 65.0985 46.3718 67.6295 47.637 70.008C48.7294 72.0487 50.3649 73.7474 52.3628 74.9163C54.3606 76.0852 56.6429 76.6786 58.957 76.631L58.958 76.63Z" fill="#546F8D"/>
<path d="M78.211 14.834L77.293 20.875H103.914L104.72 14.834H78.211Z" fill="#2D394B"/>
<path opacity="0.48" d="M85.541 86.19C82.669 83.673 78.125 84.168 76.095 87.412C75.5826 88.2006 75.3051 89.1186 75.295 90.059C75.295 94.039 78.039 96.649 83.522 95.551C87.706 94.712 89.301 89.478 85.542 86.191L85.541 86.19Z" fill="white"/>
<path d="M147.189 96.379C155.369 96.379 162.001 89.7363 162.001 81.542C162.001 73.3478 155.369 66.705 147.189 66.705C139.009 66.705 132.377 73.3478 132.377 81.542C132.377 89.7363 139.009 96.379 147.189 96.379Z" fill="#FC7614"/>
<path d="M73.732 35.75C73.6613 35.7525 73.5909 35.741 73.5246 35.7163C73.4584 35.6916 73.3977 35.654 73.346 35.6058C73.2415 35.5085 73.18 35.3737 73.175 35.231C73.1699 35.0883 73.2218 34.9495 73.3191 34.845C73.4165 34.7405 73.5513 34.679 73.694 34.674C73.807 34.674 85.037 33.846 91.057 34.384C91.1997 34.3967 91.3315 34.4656 91.4233 34.5755C91.5152 34.6854 91.5597 34.8273 91.547 34.97C91.5343 35.1127 91.4654 35.2445 91.3555 35.3363C91.2456 35.4282 91.1037 35.4727 90.961 35.46C85.053 34.922 73.882 35.734 73.775 35.745L73.732 35.75ZM72.841 43.029C72.7703 43.0315 72.6999 43.02 72.6336 42.9953C72.5674 42.9706 72.5067 42.933 72.455 42.8848C72.3505 42.7875 72.289 42.6527 72.284 42.51C72.2789 42.3673 72.3308 42.2285 72.4281 42.124C72.5255 42.0195 72.6603 41.958 72.803 41.953C72.916 41.953 84.145 41.125 90.166 41.663C90.2366 41.6694 90.3053 41.6896 90.3682 41.7225C90.431 41.7554 90.4867 41.8004 90.5322 41.8549C90.5777 41.9093 90.6119 41.9722 90.6331 42.0399C90.6542 42.1076 90.6619 42.1788 90.6555 42.2495C90.6491 42.3201 90.6289 42.3888 90.596 42.4517C90.563 42.5145 90.5181 42.5702 90.4636 42.6157C90.4092 42.6612 90.3463 42.6954 90.2786 42.7166C90.2108 42.7377 90.1396 42.7454 90.069 42.739C84.162 42.201 72.996 43.019 72.884 43.024L72.841 43.029ZM72.739 50.593C72.5963 50.5987 72.4572 50.5475 72.3523 50.4506C72.2473 50.3537 72.1852 50.2192 72.1795 50.0765C72.1738 49.9338 72.225 49.7947 72.3219 49.6898C72.4187 49.5848 72.5533 49.5227 72.696 49.517C72.808 49.517 84.043 48.688 90.058 49.227C90.1967 49.2445 90.3232 49.3151 90.4109 49.424C90.4986 49.5329 90.5406 49.6715 90.5282 49.8108C90.5157 49.95 90.4498 50.079 90.3442 50.1706C90.2386 50.2622 90.1016 50.3093 89.962 50.302C84.054 49.764 72.889 50.582 72.776 50.588L72.739 50.593ZM72.024 58.157C71.8813 58.1619 71.7425 58.1099 71.6381 58.0125C71.5338 57.9151 71.4724 57.7802 71.4675 57.6375C71.4626 57.4948 71.5145 57.356 71.612 57.2516C71.7094 57.1473 71.8443 57.0859 71.987 57.081C72.099 57.081 83.329 56.252 89.349 56.796C89.4196 56.8023 89.4884 56.8224 89.5512 56.8553C89.6141 56.8882 89.6698 56.9331 89.7153 56.9875C89.7608 57.0419 89.7952 57.1048 89.8164 57.1724C89.8376 57.2401 89.8453 57.3113 89.839 57.382C89.8327 57.4526 89.8125 57.5214 89.7797 57.5842C89.7468 57.6471 89.7019 57.7028 89.6475 57.7483C89.5931 57.7938 89.5302 57.8282 89.4625 57.8494C89.3948 57.8706 89.3236 57.8783 89.253 57.872C83.345 57.334 72.18 58.152 72.067 58.157H72.024Z" fill="white"/>
</svg>
