<svg width="15" height="17" viewBox="0 0 15 17" fill="none" xmlns="http://www.w3.org/2000/svg">
<path d="M14.383 11.0373C14.3814 10.5275 14.2359 10.03 13.9652 9.60913C13.6946 9.18823 13.3113 8.8633 12.865 8.67638L14.359 2.73382C14.3901 2.60726 14.3933 2.47478 14.3683 2.3467C14.3433 2.21862 14.2909 2.0984 14.215 1.99538C14.1374 1.89888 14.0404 1.82207 13.9313 1.77059C13.8221 1.71911 13.7034 1.69427 13.584 1.69788H2.637L2.373 0.627943C2.32696 0.447191 2.22603 0.287651 2.08589 0.174103C1.94575 0.0605553 1.77424 -0.000645978 1.598 5.14215e-06H0V1.69788H0.983L2.965 9.56038C3.01222 9.74524 3.11682 9.90773 3.26185 10.0215C3.40688 10.1353 3.58382 10.1937 3.764 10.1873H11.986C12.1931 10.195 12.3894 10.2879 12.5333 10.4464C12.6773 10.6049 12.7577 10.8165 12.7577 11.0367C12.7577 11.257 12.6773 11.4686 12.5333 11.627C12.3894 11.7855 12.1931 11.8784 11.986 11.8862H1.598C1.48971 11.8804 1.38145 11.8981 1.27979 11.9382C1.17814 11.9783 1.08521 12.0399 1.00665 12.1193C0.928086 12.1986 0.865535 12.2942 0.822794 12.4001C0.780053 12.5059 0.758013 12.6199 0.758013 12.7351C0.758013 12.8503 0.780053 12.9643 0.822794 13.0702C0.865535 13.1761 0.928086 13.2716 1.00665 13.351C1.08521 13.4304 1.17814 13.492 1.27979 13.5321C1.38145 13.5721 1.48971 13.5898 1.598 13.5841H2.541C2.40976 13.9687 2.36768 14.3813 2.41831 14.7869C2.46894 15.1925 2.6108 15.5792 2.83188 15.9142C3.05296 16.2492 3.34675 16.5227 3.68838 16.7115C4.03 16.9003 4.40942 16.9988 4.7945 16.9988C5.17958 16.9988 5.559 16.9003 5.90063 16.7115C6.24225 16.5227 6.53604 16.2492 6.75712 15.9142C6.9782 15.5792 7.12006 15.1925 7.17069 14.7869C7.22132 14.3813 7.17924 13.9687 7.048 13.5841H8.933C8.79544 13.9863 8.75551 14.4189 8.81688 14.8419C8.87825 15.2648 9.03895 15.6646 9.28413 16.0041C9.52932 16.3436 9.85108 16.6121 10.2197 16.7846C10.5883 16.9571 10.9919 17.0281 11.3932 16.9911C11.7945 16.9541 12.1805 16.8102 12.5157 16.5728C12.8508 16.3354 13.1242 16.0121 13.3106 15.6327C13.4971 15.2533 13.5906 14.8302 13.5824 14.4023C13.5742 13.9744 13.4647 13.5556 13.264 13.1846C13.6059 12.9559 13.8878 12.6392 14.0836 12.2638C14.2794 11.8884 14.3827 11.4665 14.384 11.0373H14.383ZM11.26 8.48938H4.395L3.068 3.39576H12.545L11.26 8.49044V8.48938ZM4.795 15.2809C4.68671 15.2866 4.57845 15.2689 4.47679 15.2289C4.37514 15.1888 4.28221 15.1272 4.20365 15.0478C4.12509 14.9684 4.06254 14.8729 4.01979 14.767C3.97705 14.6611 3.95501 14.5471 3.95501 14.4319C3.95501 14.3167 3.97705 14.2027 4.01979 14.0969C4.06254 13.991 4.12509 13.8955 4.20365 13.8161C4.28221 13.7367 4.37514 13.6751 4.47679 13.635C4.57845 13.5949 4.68671 13.5772 4.795 13.583C4.99999 13.5939 5.1932 13.6881 5.33466 13.8461C5.47612 14.0041 5.55501 14.2139 5.55501 14.4319C5.55501 14.65 5.47612 14.8598 5.33466 15.0178C5.1932 15.1758 4.99999 15.27 4.795 15.2809ZM11.188 15.2809C11.0797 15.2866 10.9715 15.2689 10.8698 15.2289C10.7681 15.1888 10.6752 15.1272 10.5966 15.0478C10.5181 14.9684 10.4555 14.8729 10.4128 14.767C10.3701 14.6611 10.348 14.5471 10.348 14.4319C10.348 14.3167 10.3701 14.2027 10.4128 14.0969C10.4555 13.991 10.5181 13.8955 10.5966 13.8161C10.6752 13.7367 10.7681 13.6751 10.8698 13.635C10.9715 13.5949 11.0797 13.5772 11.188 13.583C11.393 13.5939 11.5862 13.6881 11.7277 13.8461C11.8691 14.0041 11.948 14.2139 11.948 14.4319C11.948 14.65 11.8691 14.8598 11.7277 15.0178C11.5862 15.1758 11.393 15.27 11.188 15.2809Z" fill="white"/>
</svg>
