<svg width="607" height="608" viewBox="0 0 607 608" fill="none" xmlns="http://www.w3.org/2000/svg">
<path fill-rule="evenodd" clip-rule="evenodd" d="M23.6667 1.00003C10.7812 1.00003 0.333374 11.4479 0.333374 24.3334V584.333C0.333374 597.219 10.7812 607.667 23.6667 607.667H362V192.853C362 185.291 364.453 178.036 368.833 172.681C373.208 167.332 379.146 164.327 385.333 164.327H443.667V24.3272C443.667 11.4418 433.219 0.993896 420.333 0.993896L23.6667 1.00003ZM186 36C186.396 35.9792 186.792 35.9792 187.188 36H268.49C271.615 35.9532 274.626 37.1615 276.855 39.3542C279.079 41.5468 280.334 44.5416 280.334 47.6667C280.334 50.7918 279.079 53.7864 276.855 55.9792C274.626 58.1719 271.615 59.3803 268.49 59.3334H187.188C180.766 59.625 175.313 54.6771 174.99 48.2552C174.662 41.8334 179.583 36.3594 186 36H186ZM222.005 514.333C228.193 514.333 234.13 516.792 238.505 521.167C242.88 525.542 245.339 531.479 245.339 537.667C245.339 543.854 242.88 549.792 238.505 554.167C234.13 558.542 228.193 561 222.005 561C215.818 561 209.88 558.542 205.505 554.167C201.13 549.792 198.672 543.854 198.672 537.667C198.672 531.479 201.13 525.542 205.505 521.167C209.88 516.792 215.818 514.333 222.005 514.333Z" fill="black"/>
<path fill-rule="evenodd" clip-rule="evenodd" d="M408.667 187.667C402.479 187.667 396.542 190.125 392.167 194.5C387.792 198.875 385.333 204.813 385.333 211V584.333C385.333 590.521 387.792 596.458 392.167 600.833C396.542 605.208 402.479 607.667 408.667 607.667H583.667C589.854 607.667 595.792 605.208 600.167 600.833C604.542 596.458 607 590.521 607 584.333V211C607 204.813 604.542 198.875 600.167 194.5C595.792 190.125 589.854 187.667 583.667 187.667H408.667ZM477.661 222.667C478.057 222.646 478.453 222.646 478.849 222.667H513.485C516.605 222.625 519.61 223.839 521.829 226.031C524.047 228.224 525.297 231.214 525.297 234.333C525.297 237.453 524.047 240.443 521.829 242.636C519.61 244.823 516.605 246.037 513.485 246H478.849C472.406 246.328 466.917 241.37 466.588 234.927C466.26 228.479 471.219 222.995 477.661 222.667H477.661ZM496.167 549.333C502.609 549.333 507.833 554.557 507.833 561C507.833 567.443 502.609 572.667 496.167 572.667C489.724 572.667 484.5 567.443 484.5 561C484.5 554.557 489.724 549.333 496.167 549.333Z" fill="black"/>
</svg>
