<svg width="724" height="509" viewBox="0 0 724 509" fill="none" xmlns="http://www.w3.org/2000/svg">
<path d="M35.0533 0.584015C15.8346 0.584015 0.0065918 16.4533 0.0065918 35.6773V327.251H438.1V210.125C438.1 203.933 443.069 198.917 449.173 198.917H630.053V35.6771C630.053 16.4531 614.225 0.58374 595.006 0.58374L35.0533 0.584015Z" fill="black"/>
<path d="M0 350.587V385.633C0 404.852 15.828 420.68 35.0467 420.68H438.1V350.587H0ZM315.053 373.967C321.496 373.967 326.72 379.185 326.72 385.633C326.72 392.081 321.496 397.3 315.053 397.3C308.611 397.3 303.387 392.081 303.387 385.633C303.387 379.185 308.611 373.967 315.053 373.967Z" fill="black"/>
<path fill-rule="evenodd" clip-rule="evenodd" d="M247.933 438.08L242.1 478.913L201.267 508.08H428.76L387.927 478.913L382.093 438.08H247.933Z" fill="black"/>
<path fill-rule="evenodd" clip-rule="evenodd" d="M466.067 216.413C459.962 216.413 454.994 221.429 454.994 227.627V496.867C454.994 503.065 459.962 508.08 466.067 508.08H583.327V289.32C583.327 281.273 588.811 274.747 595.587 274.736H664.994V227.616C664.994 221.424 660.025 216.403 653.921 216.403L466.067 216.413ZM559.993 449.747C566.436 449.747 571.66 454.971 571.66 461.413C571.66 467.856 566.436 473.08 559.993 473.08C553.551 473.08 548.327 467.856 548.327 461.413C548.327 454.971 553.551 449.747 559.993 449.747Z" fill="black"/>
<path fill-rule="evenodd" clip-rule="evenodd" d="M618.933 298.08C612.157 298.09 606.673 303.309 606.673 309.747V496.413C606.673 502.846 612.157 508.07 618.933 508.08H711.084H711.079C717.855 508.07 723.339 502.846 723.339 496.413V309.747C723.339 303.309 717.855 298.09 711.079 298.08H618.933ZM665.007 449.747C671.449 449.747 676.673 454.971 676.673 461.413C676.673 467.856 671.449 473.08 665.007 473.08C658.564 473.08 653.34 467.856 653.34 461.413C653.34 454.971 658.564 449.747 665.007 449.747Z" fill="black"/>
<path fill-rule="evenodd" clip-rule="evenodd" d="M466.067 216.413C459.962 216.413 454.994 221.429 454.994 227.627V496.867C454.994 503.065 459.962 508.08 466.067 508.08H583.327V289.32C583.327 281.273 588.811 274.747 595.587 274.736H664.994V227.616C664.994 221.424 660.025 216.403 653.921 216.403L466.067 216.413ZM559.993 449.747C566.436 449.747 571.66 454.971 571.66 461.413C571.66 467.856 566.436 473.08 559.993 473.08C553.551 473.08 548.327 467.856 548.327 461.413C548.327 454.971 553.551 449.747 559.993 449.747Z" fill="black"/>
<path fill-rule="evenodd" clip-rule="evenodd" d="M618.933 298.08C612.157 298.09 606.673 303.309 606.673 309.747V496.413C606.673 502.846 612.157 508.07 618.933 508.08H711.084H711.079C717.855 508.07 723.339 502.846 723.339 496.413V309.747C723.339 303.309 717.855 298.09 711.079 298.08H618.933ZM665.007 449.747C671.449 449.747 676.673 454.971 676.673 461.413C676.673 467.856 671.449 473.08 665.007 473.08C658.564 473.08 653.34 467.856 653.34 461.413C653.34 454.971 658.564 449.747 665.007 449.747Z" fill="black"/>
</svg>
